<?xml version="1.0" encoding="utf-8" standalone="no"?>
<!DOCTYPE svg PUBLIC "-//W3C//DTD SVG 1.1//EN"
  "http://www.w3.org/Graphics/SVG/1.1/DTD/svg11.dtd">
<svg xmlns:xlink="http://www.w3.org/1999/xlink" width="475.2pt" height="252pt" viewBox="0 0 475.2 252" xmlns="http://www.w3.org/2000/svg" version="1.1">
 <metadata>
  <rdf:RDF xmlns:dc="http://purl.org/dc/elements/1.1/" xmlns:cc="http://creativecommons.org/ns#" xmlns:rdf="http://www.w3.org/1999/02/22-rdf-syntax-ns#">
   <cc:Work>
    <dc:type rdf:resource="http://purl.org/dc/dcmitype/StillImage"/>
    <dc:date>2026-06-12T21:38:23.812098</dc:date>
    <dc:format>image/svg+xml</dc:format>
    <dc:creator>
     <cc:Agent>
      <dc:title>Matplotlib v3.10.8, https://matplotlib.org/</dc:title>
     </cc:Agent>
    </dc:creator>
   </cc:Work>
  </rdf:RDF>
 </metadata>
 <defs>
  <style type="text/css">*{stroke-linejoin: round; stroke-linecap: butt}</style>
 </defs>
 <g id="figure_1">
  <g id="patch_1">
   <path d="M 0 252 
L 475.2 252 
L 475.2 0 
L 0 0 
z
" style="fill: #0e1014"/>
  </g>
  <g id="axes_1">
   <g id="patch_2">
    <path d="M 31.88 210.76 
L 456.39 210.76 
L 456.39 29.44 
L 31.88 29.44 
z
" style="fill: #0e1014"/>
   </g>
   <g id="FillBetweenPolyCollection_1">
    <defs>
     <path id="m9b82e067de" d="M 31.88 -41.24 
L 31.88 -92.88347 
L 32.943935 -94.071792 
L 34.00787 -95.265722 
L 35.071805 -96.46462 
L 36.135739 -97.66784 
L 37.199674 -98.874735 
L 38.263609 -100.084656 
L 39.327544 -101.296956 
L 40.391479 -102.510985 
L 41.455414 -103.726102 
L 42.519348 -104.941664 
L 43.583283 -106.157038 
L 44.647218 -107.371593 
L 45.711153 -108.584709 
L 46.775088 -109.795772 
L 47.839023 -111.004181 
L 48.902957 -112.209342 
L 49.966892 -113.410675 
L 51.030827 -114.607611 
L 52.094762 -115.799596 
L 53.158697 -116.98609 
L 54.222632 -118.166566 
L 55.286566 -119.340515 
L 56.350501 -120.507443 
L 57.414436 -121.666871 
L 58.478371 -122.81834 
L 59.542306 -123.961407 
L 60.606241 -125.095646 
L 61.670175 -126.220649 
L 62.73411 -127.336027 
L 63.798045 -128.441408 
L 64.86198 -129.536437 
L 65.925915 -130.620779 
L 66.98985 -131.694114 
L 68.053784 -132.756142 
L 69.117719 -133.806578 
L 70.181654 -134.845155 
L 71.245589 -135.87162 
L 72.309524 -136.885739 
L 73.373459 -137.887289 
L 74.437393 -138.876066 
L 75.501328 -139.851877 
L 76.565263 -140.814543 
L 77.629198 -141.763897 
L 78.693133 -142.699785 
L 79.757068 -143.622064 
L 80.821003 -144.5306 
L 81.884937 -145.425271 
L 82.948872 -146.305962 
L 84.012807 -147.172566 
L 85.076742 -148.024984 
L 86.140677 -148.863125 
L 87.204612 -149.686903 
L 88.268546 -150.496236 
L 89.332481 -151.291049 
L 90.396416 -152.071271 
L 91.460351 -152.836833 
L 92.524286 -153.58767 
L 93.588221 -154.323722 
L 94.652155 -155.044929 
L 95.71609 -155.751232 
L 96.780025 -156.442578 
L 97.84396 -157.118913 
L 98.907895 -157.780183 
L 99.97183 -158.426341 
L 101.035764 -159.057336 
L 102.099699 -159.673121 
L 103.163634 -160.273653 
L 104.227569 -160.858888 
L 105.291504 -161.428786 
L 106.355439 -161.98331 
L 107.419373 -162.522426 
L 108.483308 -163.046103 
L 109.547243 -163.554316 
L 110.611178 -164.047044 
L 111.675113 -164.524272 
L 112.739048 -164.985991 
L 113.802982 -165.432199 
L 114.866917 -165.862903 
L 115.930852 -166.278116 
L 116.994787 -166.677863 
L 118.058722 -167.062177 
L 119.122657 -167.431105 
L 120.186591 -167.784702 
L 121.250526 -168.123039 
L 122.314461 -168.446197 
L 123.378396 -168.754273 
L 124.442331 -169.04738 
L 125.506266 -169.325642 
L 126.570201 -169.589204 
L 127.634135 -169.838224 
L 128.69807 -170.072879 
L 129.762005 -170.293362 
L 130.82594 -170.499884 
L 131.889875 -170.692674 
L 132.95381 -170.871981 
L 134.017744 -171.038069 
L 135.081679 -171.191222 
L 136.145614 -171.331743 
L 137.209549 -171.45995 
L 138.273484 -171.576181 
L 139.337419 -171.68079 
L 140.401353 -171.774148 
L 141.465288 -171.856642 
L 142.529223 -171.928672 
L 143.593158 -171.990656 
L 144.657093 -172.043022 
L 145.721028 -172.086212 
L 146.784962 -172.12068 
L 147.848897 -172.146888 
L 148.912832 -172.165307 
L 149.976767 -172.176416 
L 151.040702 -172.1807 
L 152.104637 -172.178648 
L 153.168571 -172.17075 
L 154.232506 -172.1575 
L 155.296441 -172.139389 
L 156.360376 -172.116907 
L 157.424311 -172.090539 
L 158.488246 -172.060766 
L 159.55218 -172.028059 
L 160.616115 -171.992882 
L 161.68005 -171.955686 
L 162.743985 -171.916912 
L 163.80792 -171.876984 
L 164.871855 -171.836311 
L 165.935789 -171.795286 
L 166.999724 -171.754281 
L 168.063659 -171.713649 
L 169.127594 -171.67372 
L 170.191529 -171.634803 
L 171.255464 -171.597182 
L 172.319398 -171.561115 
L 173.383333 -171.526834 
L 174.447268 -171.494547 
L 175.511203 -171.464431 
L 176.575138 -171.436636 
L 177.639073 -171.411284 
L 178.703008 -171.388469 
L 179.766942 -171.368254 
L 180.830877 -171.350673 
L 181.894812 -171.335734 
L 182.958747 -171.323413 
L 184.022682 -171.31366 
L 185.086617 -171.306395 
L 186.150551 -171.301514 
L 187.214486 -171.298883 
L 188.278421 -171.298346 
L 189.342356 -171.29972 
L 190.406291 -171.302799 
L 191.470226 -171.307358 
L 192.53416 -171.313146 
L 193.598095 -171.319898 
L 194.66203 -171.327327 
L 195.725965 -171.335131 
L 196.7899 -171.342995 
L 197.853835 -171.350588 
L 198.917769 -171.357571 
L 199.981704 -171.363594 
L 201.045639 -171.368299 
L 202.109574 -171.371322 
L 203.173509 -171.372296 
L 204.237444 -171.370852 
L 205.301378 -171.366618 
L 206.365313 -171.359228 
L 207.429248 -171.348315 
L 208.493183 -171.333518 
L 209.557118 -171.314483 
L 210.621053 -171.290865 
L 211.684987 -171.262325 
L 212.748922 -171.228539 
L 213.812857 -171.189194 
L 214.876792 -171.143989 
L 215.940727 -171.09264 
L 217.004662 -171.034878 
L 218.068596 -170.970451 
L 219.132531 -170.899125 
L 220.196466 -170.820682 
L 221.260401 -170.734928 
L 222.324336 -170.641683 
L 223.388271 -170.540792 
L 224.452206 -170.432115 
L 225.51614 -170.315538 
L 226.580075 -170.190963 
L 227.64401 -170.058314 
L 228.707945 -169.917535 
L 229.77188 -169.76859 
L 230.835815 -169.611462 
L 231.899749 -169.446153 
L 232.963684 -169.272683 
L 234.027619 -169.091091 
L 235.091554 -168.901429 
L 236.155489 -168.703769 
L 237.219424 -168.498196 
L 238.283358 -168.284808 
L 239.347293 -168.063716 
L 240.411228 -167.835045 
L 241.475163 -167.598926 
L 242.539098 -167.355502 
L 243.603033 -167.104924 
L 244.666967 -166.847347 
L 245.730902 -166.582934 
L 246.794837 -166.31185 
L 247.858772 -166.034264 
L 248.922707 -165.750343 
L 249.986642 -165.460258 
L 251.050576 -165.164176 
L 252.114511 -164.862261 
L 253.178446 -164.554674 
L 254.242381 -164.241571 
L 255.306316 -163.923102 
L 256.370251 -163.599408 
L 257.434185 -163.270622 
L 258.49812 -162.93687 
L 259.562055 -162.598265 
L 260.62599 -162.25491 
L 261.689925 -161.906895 
L 262.75386 -161.5543 
L 263.817794 -161.19719 
L 264.881729 -160.835617 
L 265.945664 -160.46962 
L 267.009599 -160.099221 
L 268.073534 -159.72443 
L 269.137469 -159.345243 
L 270.201404 -158.961639 
L 271.265338 -158.573584 
L 272.329273 -158.181031 
L 273.393208 -157.783917 
L 274.457143 -157.382165 
L 275.521078 -156.975686 
L 276.585013 -156.564378 
L 277.648947 -156.148127 
L 278.712882 -155.726808 
L 279.776817 -155.300284 
L 280.840752 -154.86841 
L 281.904687 -154.431031 
L 282.968622 -153.987984 
L 284.032556 -153.539101 
L 285.096491 -153.084207 
L 286.160426 -152.623123 
L 287.224361 -152.155665 
L 288.288296 -151.68165 
L 289.352231 -151.200893 
L 290.416165 -150.713207 
L 291.4801 -150.218412 
L 292.544035 -149.716327 
L 293.60797 -149.206778 
L 294.671905 -148.689595 
L 295.73584 -148.164618 
L 296.799774 -147.631693 
L 297.863709 -147.090679 
L 298.927644 -146.541443 
L 299.991579 -145.983868 
L 301.055514 -145.41785 
L 302.119449 -144.843298 
L 303.183383 -144.26014 
L 304.247318 -143.668321 
L 305.311253 -143.067805 
L 306.375188 -142.458572 
L 307.439123 -141.840629 
L 308.503058 -141.213999 
L 309.566992 -140.578729 
L 310.630927 -139.93489 
L 311.694862 -139.282575 
L 312.758797 -138.621903 
L 313.822732 -137.953016 
L 314.886667 -137.276083 
L 315.950602 -136.591296 
L 317.014536 -135.898874 
L 318.078471 -135.199061 
L 319.142406 -134.492128 
L 320.206341 -133.778371 
L 321.270276 -133.058109 
L 322.334211 -132.33169 
L 323.398145 -131.599484 
L 324.46208 -130.861887 
L 325.526015 -130.119317 
L 326.58995 -129.372215 
L 327.653885 -128.621047 
L 328.71782 -127.866296 
L 329.781754 -127.108469 
L 330.845689 -126.34809 
L 331.909624 -125.585704 
L 332.973559 -124.821869 
L 334.037494 -124.057164 
L 335.101429 -123.292178 
L 336.165363 -122.527515 
L 337.229298 -121.763791 
L 338.293233 -121.001633 
L 339.357168 -120.241673 
L 340.421103 -119.484555 
L 341.485038 -118.730925 
L 342.548972 -117.981433 
L 343.612907 -117.236734 
L 344.676842 -116.49748 
L 345.740777 -115.764324 
L 346.804712 -115.037915 
L 347.868647 -114.318897 
L 348.932581 -113.607909 
L 349.996516 -112.90558 
L 351.060451 -112.212531 
L 352.124386 -111.52937 
L 353.188321 -110.856693 
L 354.252256 -110.19508 
L 355.31619 -109.545097 
L 356.380125 -108.907289 
L 357.44406 -108.282184 
L 358.507995 -107.670288 
L 359.57193 -107.072085 
L 360.635865 -106.488036 
L 361.699799 -105.918577 
L 362.763734 -105.364118 
L 363.827669 -104.82504 
L 364.891604 -104.301699 
L 365.955539 -103.79442 
L 367.019474 -103.303498 
L 368.083409 -102.829196 
L 369.147343 -102.371747 
L 370.211278 -101.93135 
L 371.275213 -101.508172 
L 372.339148 -101.102347 
L 373.403083 -100.713972 
L 374.467018 -100.343113 
L 375.530952 -99.989799 
L 376.594887 -99.654024 
L 377.658822 -99.33575 
L 378.722757 -99.034899 
L 379.786692 -98.751363 
L 380.850627 -98.484995 
L 381.914561 -98.235616 
L 382.978496 -98.003012 
L 384.042431 -97.786932 
L 385.106366 -97.587096 
L 386.170301 -97.403188 
L 387.234236 -97.234861 
L 388.29817 -97.081733 
L 389.362105 -96.943394 
L 390.42604 -96.819402 
L 391.489975 -96.709287 
L 392.55391 -96.612547 
L 393.617845 -96.528656 
L 394.681779 -96.457059 
L 395.745714 -96.397175 
L 396.809649 -96.348401 
L 397.873584 -96.310109 
L 398.937519 -96.281648 
L 400.001454 -96.262347 
L 401.065388 -96.251517 
L 402.129323 -96.248448 
L 403.193258 -96.252416 
L 404.257193 -96.262681 
L 405.321128 -96.278488 
L 406.385063 -96.299071 
L 407.448997 -96.323653 
L 408.512932 -96.351447 
L 409.576867 -96.381661 
L 410.640802 -96.413494 
L 411.704737 -96.446143 
L 412.768672 -96.478802 
L 413.832607 -96.510663 
L 414.896541 -96.540919 
L 415.960476 -96.568768 
L 417.024411 -96.593409 
L 418.088346 -96.614049 
L 419.152281 -96.629901 
L 420.216216 -96.640189 
L 421.28015 -96.644148 
L 422.344085 -96.641023 
L 423.40802 -96.630077 
L 424.471955 -96.610587 
L 425.53589 -96.581848 
L 426.599825 -96.543174 
L 427.663759 -96.493901 
L 428.727694 -96.433385 
L 429.791629 -96.361008 
L 430.855564 -96.276176 
L 431.919499 -96.178323 
L 432.983434 -96.066908 
L 434.047368 -95.941423 
L 435.111303 -95.801388 
L 436.175238 -95.646354 
L 437.239173 -95.475907 
L 438.303108 -95.289665 
L 439.367043 -95.087281 
L 440.430977 -94.868443 
L 441.494912 -94.632876 
L 442.558847 -94.38034 
L 443.622782 -94.110635 
L 444.686717 -93.823598 
L 445.750652 -93.519102 
L 446.814586 -93.197061 
L 447.878521 -92.857427 
L 448.942456 -92.500191 
L 450.006391 -92.125383 
L 451.070326 -91.733071 
L 452.134261 -91.323361 
L 453.198195 -90.896399 
L 454.26213 -90.452367 
L 455.326065 -89.991484 
L 456.39 -89.514007 
L 456.39 -41.24 
L 456.39 -41.24 
L 455.326065 -41.24 
L 454.26213 -41.24 
L 453.198195 -41.24 
L 452.134261 -41.24 
L 451.070326 -41.24 
L 450.006391 -41.24 
L 448.942456 -41.24 
L 447.878521 -41.24 
L 446.814586 -41.24 
L 445.750652 -41.24 
L 444.686717 -41.24 
L 443.622782 -41.24 
L 442.558847 -41.24 
L 441.494912 -41.24 
L 440.430977 -41.24 
L 439.367043 -41.24 
L 438.303108 -41.24 
L 437.239173 -41.24 
L 436.175238 -41.24 
L 435.111303 -41.24 
L 434.047368 -41.24 
L 432.983434 -41.24 
L 431.919499 -41.24 
L 430.855564 -41.24 
L 429.791629 -41.24 
L 428.727694 -41.24 
L 427.663759 -41.24 
L 426.599825 -41.24 
L 425.53589 -41.24 
L 424.471955 -41.24 
L 423.40802 -41.24 
L 422.344085 -41.24 
L 421.28015 -41.24 
L 420.216216 -41.24 
L 419.152281 -41.24 
L 418.088346 -41.24 
L 417.024411 -41.24 
L 415.960476 -41.24 
L 414.896541 -41.24 
L 413.832607 -41.24 
L 412.768672 -41.24 
L 411.704737 -41.24 
L 410.640802 -41.24 
L 409.576867 -41.24 
L 408.512932 -41.24 
L 407.448997 -41.24 
L 406.385063 -41.24 
L 405.321128 -41.24 
L 404.257193 -41.24 
L 403.193258 -41.24 
L 402.129323 -41.24 
L 401.065388 -41.24 
L 400.001454 -41.24 
L 398.937519 -41.24 
L 397.873584 -41.24 
L 396.809649 -41.24 
L 395.745714 -41.24 
L 394.681779 -41.24 
L 393.617845 -41.24 
L 392.55391 -41.24 
L 391.489975 -41.24 
L 390.42604 -41.24 
L 389.362105 -41.24 
L 388.29817 -41.24 
L 387.234236 -41.24 
L 386.170301 -41.24 
L 385.106366 -41.24 
L 384.042431 -41.24 
L 382.978496 -41.24 
L 381.914561 -41.24 
L 380.850627 -41.24 
L 379.786692 -41.24 
L 378.722757 -41.24 
L 377.658822 -41.24 
L 376.594887 -41.24 
L 375.530952 -41.24 
L 374.467018 -41.24 
L 373.403083 -41.24 
L 372.339148 -41.24 
L 371.275213 -41.24 
L 370.211278 -41.24 
L 369.147343 -41.24 
L 368.083409 -41.24 
L 367.019474 -41.24 
L 365.955539 -41.24 
L 364.891604 -41.24 
L 363.827669 -41.24 
L 362.763734 -41.24 
L 361.699799 -41.24 
L 360.635865 -41.24 
L 359.57193 -41.24 
L 358.507995 -41.24 
L 357.44406 -41.24 
L 356.380125 -41.24 
L 355.31619 -41.24 
L 354.252256 -41.24 
L 353.188321 -41.24 
L 352.124386 -41.24 
L 351.060451 -41.24 
L 349.996516 -41.24 
L 348.932581 -41.24 
L 347.868647 -41.24 
L 346.804712 -41.24 
L 345.740777 -41.24 
L 344.676842 -41.24 
L 343.612907 -41.24 
L 342.548972 -41.24 
L 341.485038 -41.24 
L 340.421103 -41.24 
L 339.357168 -41.24 
L 338.293233 -41.24 
L 337.229298 -41.24 
L 336.165363 -41.24 
L 335.101429 -41.24 
L 334.037494 -41.24 
L 332.973559 -41.24 
L 331.909624 -41.24 
L 330.845689 -41.24 
L 329.781754 -41.24 
L 328.71782 -41.24 
L 327.653885 -41.24 
L 326.58995 -41.24 
L 325.526015 -41.24 
L 324.46208 -41.24 
L 323.398145 -41.24 
L 322.334211 -41.24 
L 321.270276 -41.24 
L 320.206341 -41.24 
L 319.142406 -41.24 
L 318.078471 -41.24 
L 317.014536 -41.24 
L 315.950602 -41.24 
L 314.886667 -41.24 
L 313.822732 -41.24 
L 312.758797 -41.24 
L 311.694862 -41.24 
L 310.630927 -41.24 
L 309.566992 -41.24 
L 308.503058 -41.24 
L 307.439123 -41.24 
L 306.375188 -41.24 
L 305.311253 -41.24 
L 304.247318 -41.24 
L 303.183383 -41.24 
L 302.119449 -41.24 
L 301.055514 -41.24 
L 299.991579 -41.24 
L 298.927644 -41.24 
L 297.863709 -41.24 
L 296.799774 -41.24 
L 295.73584 -41.24 
L 294.671905 -41.24 
L 293.60797 -41.24 
L 292.544035 -41.24 
L 291.4801 -41.24 
L 290.416165 -41.24 
L 289.352231 -41.24 
L 288.288296 -41.24 
L 287.224361 -41.24 
L 286.160426 -41.24 
L 285.096491 -41.24 
L 284.032556 -41.24 
L 282.968622 -41.24 
L 281.904687 -41.24 
L 280.840752 -41.24 
L 279.776817 -41.24 
L 278.712882 -41.24 
L 277.648947 -41.24 
L 276.585013 -41.24 
L 275.521078 -41.24 
L 274.457143 -41.24 
L 273.393208 -41.24 
L 272.329273 -41.24 
L 271.265338 -41.24 
L 270.201404 -41.24 
L 269.137469 -41.24 
L 268.073534 -41.24 
L 267.009599 -41.24 
L 265.945664 -41.24 
L 264.881729 -41.24 
L 263.817794 -41.24 
L 262.75386 -41.24 
L 261.689925 -41.24 
L 260.62599 -41.24 
L 259.562055 -41.24 
L 258.49812 -41.24 
L 257.434185 -41.24 
L 256.370251 -41.24 
L 255.306316 -41.24 
L 254.242381 -41.24 
L 253.178446 -41.24 
L 252.114511 -41.24 
L 251.050576 -41.24 
L 249.986642 -41.24 
L 248.922707 -41.24 
L 247.858772 -41.24 
L 246.794837 -41.24 
L 245.730902 -41.24 
L 244.666967 -41.24 
L 243.603033 -41.24 
L 242.539098 -41.24 
L 241.475163 -41.24 
L 240.411228 -41.24 
L 239.347293 -41.24 
L 238.283358 -41.24 
L 237.219424 -41.24 
L 236.155489 -41.24 
L 235.091554 -41.24 
L 234.027619 -41.24 
L 232.963684 -41.24 
L 231.899749 -41.24 
L 230.835815 -41.24 
L 229.77188 -41.24 
L 228.707945 -41.24 
L 227.64401 -41.24 
L 226.580075 -41.24 
L 225.51614 -41.24 
L 224.452206 -41.24 
L 223.388271 -41.24 
L 222.324336 -41.24 
L 221.260401 -41.24 
L 220.196466 -41.24 
L 219.132531 -41.24 
L 218.068596 -41.24 
L 217.004662 -41.24 
L 215.940727 -41.24 
L 214.876792 -41.24 
L 213.812857 -41.24 
L 212.748922 -41.24 
L 211.684987 -41.24 
L 210.621053 -41.24 
L 209.557118 -41.24 
L 208.493183 -41.24 
L 207.429248 -41.24 
L 206.365313 -41.24 
L 205.301378 -41.24 
L 204.237444 -41.24 
L 203.173509 -41.24 
L 202.109574 -41.24 
L 201.045639 -41.24 
L 199.981704 -41.24 
L 198.917769 -41.24 
L 197.853835 -41.24 
L 196.7899 -41.24 
L 195.725965 -41.24 
L 194.66203 -41.24 
L 193.598095 -41.24 
L 192.53416 -41.24 
L 191.470226 -41.24 
L 190.406291 -41.24 
L 189.342356 -41.24 
L 188.278421 -41.24 
L 187.214486 -41.24 
L 186.150551 -41.24 
L 185.086617 -41.24 
L 184.022682 -41.24 
L 182.958747 -41.24 
L 181.894812 -41.24 
L 180.830877 -41.24 
L 179.766942 -41.24 
L 178.703008 -41.24 
L 177.639073 -41.24 
L 176.575138 -41.24 
L 175.511203 -41.24 
L 174.447268 -41.24 
L 173.383333 -41.24 
L 172.319398 -41.24 
L 171.255464 -41.24 
L 170.191529 -41.24 
L 169.127594 -41.24 
L 168.063659 -41.24 
L 166.999724 -41.24 
L 165.935789 -41.24 
L 164.871855 -41.24 
L 163.80792 -41.24 
L 162.743985 -41.24 
L 161.68005 -41.24 
L 160.616115 -41.24 
L 159.55218 -41.24 
L 158.488246 -41.24 
L 157.424311 -41.24 
L 156.360376 -41.24 
L 155.296441 -41.24 
L 154.232506 -41.24 
L 153.168571 -41.24 
L 152.104637 -41.24 
L 151.040702 -41.24 
L 149.976767 -41.24 
L 148.912832 -41.24 
L 147.848897 -41.24 
L 146.784962 -41.24 
L 145.721028 -41.24 
L 144.657093 -41.24 
L 143.593158 -41.24 
L 142.529223 -41.24 
L 141.465288 -41.24 
L 140.401353 -41.24 
L 139.337419 -41.24 
L 138.273484 -41.24 
L 137.209549 -41.24 
L 136.145614 -41.24 
L 135.081679 -41.24 
L 134.017744 -41.24 
L 132.95381 -41.24 
L 131.889875 -41.24 
L 130.82594 -41.24 
L 129.762005 -41.24 
L 128.69807 -41.24 
L 127.634135 -41.24 
L 126.570201 -41.24 
L 125.506266 -41.24 
L 124.442331 -41.24 
L 123.378396 -41.24 
L 122.314461 -41.24 
L 121.250526 -41.24 
L 120.186591 -41.24 
L 119.122657 -41.24 
L 118.058722 -41.24 
L 116.994787 -41.24 
L 115.930852 -41.24 
L 114.866917 -41.24 
L 113.802982 -41.24 
L 112.739048 -41.24 
L 111.675113 -41.24 
L 110.611178 -41.24 
L 109.547243 -41.24 
L 108.483308 -41.24 
L 107.419373 -41.24 
L 106.355439 -41.24 
L 105.291504 -41.24 
L 104.227569 -41.24 
L 103.163634 -41.24 
L 102.099699 -41.24 
L 101.035764 -41.24 
L 99.97183 -41.24 
L 98.907895 -41.24 
L 97.84396 -41.24 
L 96.780025 -41.24 
L 95.71609 -41.24 
L 94.652155 -41.24 
L 93.588221 -41.24 
L 92.524286 -41.24 
L 91.460351 -41.24 
L 90.396416 -41.24 
L 89.332481 -41.24 
L 88.268546 -41.24 
L 87.204612 -41.24 
L 86.140677 -41.24 
L 85.076742 -41.24 
L 84.012807 -41.24 
L 82.948872 -41.24 
L 81.884937 -41.24 
L 80.821003 -41.24 
L 79.757068 -41.24 
L 78.693133 -41.24 
L 77.629198 -41.24 
L 76.565263 -41.24 
L 75.501328 -41.24 
L 74.437393 -41.24 
L 73.373459 -41.24 
L 72.309524 -41.24 
L 71.245589 -41.24 
L 70.181654 -41.24 
L 69.117719 -41.24 
L 68.053784 -41.24 
L 66.98985 -41.24 
L 65.925915 -41.24 
L 64.86198 -41.24 
L 63.798045 -41.24 
L 62.73411 -41.24 
L 61.670175 -41.24 
L 60.606241 -41.24 
L 59.542306 -41.24 
L 58.478371 -41.24 
L 57.414436 -41.24 
L 56.350501 -41.24 
L 55.286566 -41.24 
L 54.222632 -41.24 
L 53.158697 -41.24 
L 52.094762 -41.24 
L 51.030827 -41.24 
L 49.966892 -41.24 
L 48.902957 -41.24 
L 47.839023 -41.24 
L 46.775088 -41.24 
L 45.711153 -41.24 
L 44.647218 -41.24 
L 43.583283 -41.24 
L 42.519348 -41.24 
L 41.455414 -41.24 
L 40.391479 -41.24 
L 39.327544 -41.24 
L 38.263609 -41.24 
L 37.199674 -41.24 
L 36.135739 -41.24 
L 35.071805 -41.24 
L 34.00787 -41.24 
L 32.943935 -41.24 
L 31.88 -41.24 
z
" style="stroke: #d8b14a; stroke-opacity: 0.18"/>
    </defs>
    <g clip-path="url(#p5b2296515a)">
     <use xlink:href="#m9b82e067de" x="0" y="252" style="fill: #d8b14a; fill-opacity: 0.18; stroke: #d8b14a; stroke-opacity: 0.18"/>
    </g>
   </g>
   <g id="FillBetweenPolyCollection_2">
    <defs>
     <path id="m61c050c1fc" d="M 31.88 -41.24 
L 31.88 -120.184627 
L 32.943935 -121.93535 
L 34.00787 -123.693193 
L 35.071805 -125.457196 
L 36.135739 -127.226386 
L 37.199674 -128.999784 
L 38.263609 -130.776402 
L 39.327544 -132.555248 
L 40.391479 -134.335325 
L 41.455414 -136.115634 
L 42.519348 -137.895175 
L 43.583283 -139.672947 
L 44.647218 -141.447953 
L 45.711153 -143.219198 
L 46.775088 -144.985689 
L 47.839023 -146.746444 
L 48.902957 -148.500483 
L 49.966892 -150.246838 
L 51.030827 -151.984548 
L 52.094762 -153.712664 
L 53.158697 -155.430248 
L 54.222632 -157.136374 
L 55.286566 -158.830131 
L 56.350501 -160.510622 
L 57.414436 -162.176965 
L 58.478371 -163.828293 
L 59.542306 -165.463757 
L 60.606241 -167.082525 
L 61.670175 -168.683782 
L 62.73411 -170.266733 
L 63.798045 -171.830599 
L 64.86198 -173.374623 
L 65.925915 -174.898064 
L 66.98985 -176.400204 
L 68.053784 -177.88034 
L 69.117719 -179.337794 
L 70.181654 -180.771903 
L 71.245589 -182.182026 
L 72.309524 -183.567541 
L 73.373459 -184.927845 
L 74.437393 -186.262357 
L 75.501328 -187.57051 
L 76.565263 -188.85176 
L 77.629198 -190.105581 
L 78.693133 -191.331464 
L 79.757068 -192.528918 
L 80.821003 -193.697472 
L 81.884937 -194.836669 
L 82.948872 -195.946073 
L 84.012807 -197.025262 
L 85.076742 -198.07383 
L 86.140677 -199.091391 
L 87.204612 -200.077572 
L 88.268546 -201.032015 
L 89.332481 -201.95438 
L 90.396416 -202.844341 
L 91.460351 -203.701588 
L 92.524286 -204.525825 
L 93.588221 -205.316772 
L 94.652155 -206.074163 
L 95.71609 -206.797747 
L 96.780025 -207.48729 
L 97.84396 -208.142571 
L 98.907895 -208.763385 
L 99.97183 -209.349542 
L 101.035764 -209.900868 
L 102.099699 -210.417207 
L 103.163634 -210.898417 
L 104.227569 -211.344372 
L 105.291504 -211.754966 
L 106.355439 -212.130109 
L 107.419373 -212.469729 
L 108.483308 -212.773774 
L 109.547243 -213.04221 
L 110.611178 -213.275023 
L 111.675113 -213.47222 
L 112.739048 -213.633828 
L 113.802982 -213.759898 
L 114.866917 -213.850502 
L 115.930852 -213.905734 
L 116.994787 -213.925714 
L 118.058722 -213.910585 
L 119.122657 -213.860516 
L 120.186591 -213.7757 
L 121.250526 -213.656358 
L 122.314461 -213.502737 
L 123.378396 -213.315111 
L 124.442331 -213.093784 
L 125.506266 -212.839084 
L 126.570201 -212.551373 
L 127.634135 -212.231038 
L 128.69807 -211.878497 
L 129.762005 -211.494196 
L 130.82594 -211.078614 
L 131.889875 -210.632256 
L 132.95381 -210.15566 
L 134.017744 -209.649389 
L 135.081679 -209.114042 
L 136.145614 -208.550241 
L 137.209549 -207.95864 
L 138.273484 -207.339923 
L 139.337419 -206.694799 
L 140.401353 -206.024005 
L 141.465288 -205.328306 
L 142.529223 -204.608493 
L 143.593158 -203.865381 
L 144.657093 -203.09981 
L 145.721028 -202.312642 
L 146.784962 -201.504764 
L 147.848897 -200.677081 
L 148.912832 -199.830519 
L 149.976767 -198.966022 
L 151.040702 -198.084552 
L 152.104637 -197.187087 
L 153.168571 -196.274616 
L 154.232506 -195.348144 
L 155.296441 -194.408685 
L 156.360376 -193.457264 
L 157.424311 -192.494912 
L 158.488246 -191.522666 
L 159.55218 -190.541569 
L 160.616115 -189.552663 
L 161.68005 -188.556994 
L 162.743985 -187.555605 
L 163.80792 -186.549535 
L 164.871855 -185.539821 
L 165.935789 -184.52749 
L 166.999724 -183.513563 
L 168.063659 -182.499049 
L 169.127594 -181.484945 
L 170.191529 -180.472235 
L 171.255464 -179.461887 
L 172.319398 -178.454851 
L 173.383333 -177.452059 
L 174.447268 -176.454422 
L 175.511203 -175.462827 
L 176.575138 -174.47814 
L 177.639073 -173.501202 
L 178.703008 -172.532824 
L 179.766942 -171.573791 
L 180.830877 -170.624861 
L 181.894812 -169.686758 
L 182.958747 -168.760175 
L 184.022682 -167.845775 
L 185.086617 -166.944185 
L 186.150551 -166.055997 
L 187.214486 -165.181769 
L 188.278421 -164.322023 
L 189.342356 -163.477243 
L 190.406291 -162.647876 
L 191.470226 -161.834331 
L 192.53416 -161.036979 
L 193.598095 -160.256153 
L 194.66203 -159.492146 
L 195.725965 -158.745212 
L 196.7899 -158.015567 
L 197.853835 -157.303386 
L 198.917769 -156.608807 
L 199.981704 -155.931928 
L 201.045639 -155.272809 
L 202.109574 -154.631472 
L 203.173509 -154.0079 
L 204.237444 -153.402041 
L 205.301378 -152.813805 
L 206.365313 -152.243066 
L 207.429248 -151.689664 
L 208.493183 -151.153402 
L 209.557118 -150.634054 
L 210.621053 -150.131356 
L 211.684987 -149.645018 
L 212.748922 -149.174714 
L 213.812857 -148.720095 
L 214.876792 -148.280778 
L 215.940727 -147.856356 
L 217.004662 -147.446397 
L 218.068596 -147.050443 
L 219.132531 -146.668014 
L 220.196466 -146.298609 
L 221.260401 -145.941705 
L 222.324336 -145.596763 
L 223.388271 -145.263225 
L 224.452206 -144.940518 
L 225.51614 -144.628054 
L 226.580075 -144.325234 
L 227.64401 -144.031446 
L 228.707945 -143.746071 
L 229.77188 -143.468478 
L 230.835815 -143.198034 
L 231.899749 -142.934097 
L 232.963684 -142.676025 
L 234.027619 -142.42317 
L 235.091554 -142.174887 
L 236.155489 -141.930531 
L 237.219424 -141.689457 
L 238.283358 -141.451026 
L 239.347293 -141.214603 
L 240.411228 -140.979559 
L 241.475163 -140.745272 
L 242.539098 -140.511131 
L 243.603033 -140.276532 
L 244.666967 -140.040883 
L 245.730902 -139.803604 
L 246.794837 -139.564129 
L 247.858772 -139.321904 
L 248.922707 -139.07639 
L 249.986642 -138.827065 
L 251.050576 -138.573423 
L 252.114511 -138.314975 
L 253.178446 -138.051248 
L 254.242381 -137.781792 
L 255.306316 -137.506171 
L 256.370251 -137.223971 
L 257.434185 -136.934797 
L 258.49812 -136.638276 
L 259.562055 -136.334053 
L 260.62599 -136.021795 
L 261.689925 -135.701191 
L 262.75386 -135.371951 
L 263.817794 -135.033803 
L 264.881729 -134.686502 
L 265.945664 -134.32982 
L 267.009599 -133.963552 
L 268.073534 -133.587514 
L 269.137469 -133.201544 
L 270.201404 -132.805499 
L 271.265338 -132.399259 
L 272.329273 -131.982724 
L 273.393208 -131.555813 
L 274.457143 -131.118468 
L 275.521078 -130.670648 
L 276.585013 -130.212332 
L 277.648947 -129.743519 
L 278.712882 -129.264226 
L 279.776817 -128.774489 
L 280.840752 -128.274362 
L 281.904687 -127.763914 
L 282.968622 -127.243235 
L 284.032556 -126.712429 
L 285.096491 -126.171617 
L 286.160426 -125.620935 
L 287.224361 -125.060536 
L 288.288296 -124.490586 
L 289.352231 -123.911266 
L 290.416165 -123.322771 
L 291.4801 -122.72531 
L 292.544035 -122.119104 
L 293.60797 -121.504386 
L 294.671905 -120.881404 
L 295.73584 -120.250413 
L 296.799774 -119.611684 
L 297.863709 -118.965496 
L 298.927644 -118.312139 
L 299.991579 -117.651912 
L 301.055514 -116.985125 
L 302.119449 -116.312096 
L 303.183383 -115.633152 
L 304.247318 -114.948629 
L 305.311253 -114.25887 
L 306.375188 -113.564225 
L 307.439123 -112.865053 
L 308.503058 -112.161718 
L 309.566992 -111.454591 
L 310.630927 -110.744049 
L 311.694862 -110.030476 
L 312.758797 -109.314258 
L 313.822732 -108.59579 
L 314.886667 -107.87547 
L 315.950602 -107.153699 
L 317.014536 -106.430883 
L 318.078471 -105.707433 
L 319.142406 -104.983762 
L 320.206341 -104.260285 
L 321.270276 -103.537421 
L 322.334211 -102.815592 
L 323.398145 -102.095221 
L 324.46208 -101.376732 
L 325.526015 -100.660552 
L 326.58995 -99.947108 
L 327.653885 -99.236827 
L 328.71782 -98.530137 
L 329.781754 -97.827467 
L 330.845689 -97.129244 
L 331.909624 -96.435895 
L 332.973559 -95.747845 
L 334.037494 -95.06552 
L 335.101429 -94.389341 
L 336.165363 -93.719729 
L 337.229298 -93.057101 
L 338.293233 -92.401871 
L 339.357168 -91.754452 
L 340.421103 -91.11525 
L 341.485038 -90.484667 
L 342.548972 -89.863104 
L 343.612907 -89.250952 
L 344.676842 -88.648599 
L 345.740777 -88.056428 
L 346.804712 -87.474813 
L 347.868647 -86.904122 
L 348.932581 -86.344716 
L 349.996516 -85.796949 
L 351.060451 -85.261164 
L 352.124386 -84.737697 
L 353.188321 -84.226874 
L 354.252256 -83.729012 
L 355.31619 -83.244415 
L 356.380125 -82.77338 
L 357.44406 -82.316188 
L 358.507995 -81.873111 
L 359.57193 -81.444407 
L 360.635865 -81.030321 
L 361.699799 -80.631086 
L 362.763734 -80.246917 
L 363.827669 -79.878017 
L 364.891604 -79.524573 
L 365.955539 -79.186756 
L 367.019474 -78.86472 
L 368.083409 -78.558603 
L 369.147343 -78.268523 
L 370.211278 -77.994583 
L 371.275213 -77.736865 
L 372.339148 -77.495433 
L 373.403083 -77.27033 
L 374.467018 -77.061581 
L 375.530952 -76.869189 
L 376.594887 -76.693136 
L 377.658822 -76.533382 
L 378.722757 -76.389866 
L 379.786692 -76.262505 
L 380.850627 -76.151191 
L 381.914561 -76.055798 
L 382.978496 -75.976171 
L 384.042431 -75.912135 
L 385.106366 -75.863492 
L 386.170301 -75.830017 
L 387.234236 -75.811463 
L 388.29817 -75.80756 
L 389.362105 -75.818011 
L 390.42604 -75.842498 
L 391.489975 -75.880678 
L 392.55391 -75.932183 
L 393.617845 -75.996622 
L 394.681779 -76.073581 
L 395.745714 -76.162622 
L 396.809649 -76.263285 
L 397.873584 -76.375087 
L 398.937519 -76.497522 
L 400.001454 -76.630065 
L 401.065388 -76.772169 
L 402.129323 -76.923265 
L 403.193258 -77.082767 
L 404.257193 -77.250069 
L 405.321128 -77.424547 
L 406.385063 -77.605561 
L 407.448997 -77.792453 
L 408.512932 -77.984552 
L 409.576867 -78.181173 
L 410.640802 -78.381617 
L 411.704737 -78.585173 
L 412.768672 -78.791122 
L 413.832607 -78.998734 
L 414.896541 -79.207272 
L 415.960476 -79.415993 
L 417.024411 -79.624149 
L 418.088346 -79.830988 
L 419.152281 -80.035757 
L 420.216216 -80.237703 
L 421.28015 -80.436074 
L 422.344085 -80.630121 
L 423.40802 -80.8191 
L 424.471955 -81.002272 
L 425.53589 -81.178908 
L 426.599825 -81.348287 
L 427.663759 -81.5097 
L 428.727694 -81.66245 
L 429.791629 -81.805857 
L 430.855564 -81.939255 
L 431.919499 -82.061995 
L 432.983434 -82.173452 
L 434.047368 -82.273016 
L 435.111303 -82.360104 
L 436.175238 -82.434155 
L 437.239173 -82.494635 
L 438.303108 -82.541034 
L 439.367043 -82.572873 
L 440.430977 -82.589701 
L 441.494912 -82.591097 
L 442.558847 -82.576673 
L 443.622782 -82.546073 
L 444.686717 -82.498974 
L 445.750652 -82.435087 
L 446.814586 -82.35416 
L 447.878521 -82.255976 
L 448.942456 -82.140353 
L 450.006391 -82.007148 
L 451.070326 -81.856253 
L 452.134261 -81.687599 
L 453.198195 -81.501154 
L 454.26213 -81.296924 
L 455.326065 -81.074951 
L 456.39 -80.835316 
L 456.39 -41.24 
L 456.39 -41.24 
L 455.326065 -41.24 
L 454.26213 -41.24 
L 453.198195 -41.24 
L 452.134261 -41.24 
L 451.070326 -41.24 
L 450.006391 -41.24 
L 448.942456 -41.24 
L 447.878521 -41.24 
L 446.814586 -41.24 
L 445.750652 -41.24 
L 444.686717 -41.24 
L 443.622782 -41.24 
L 442.558847 -41.24 
L 441.494912 -41.24 
L 440.430977 -41.24 
L 439.367043 -41.24 
L 438.303108 -41.24 
L 437.239173 -41.24 
L 436.175238 -41.24 
L 435.111303 -41.24 
L 434.047368 -41.24 
L 432.983434 -41.24 
L 431.919499 -41.24 
L 430.855564 -41.24 
L 429.791629 -41.24 
L 428.727694 -41.24 
L 427.663759 -41.24 
L 426.599825 -41.24 
L 425.53589 -41.24 
L 424.471955 -41.24 
L 423.40802 -41.24 
L 422.344085 -41.24 
L 421.28015 -41.24 
L 420.216216 -41.24 
L 419.152281 -41.24 
L 418.088346 -41.24 
L 417.024411 -41.24 
L 415.960476 -41.24 
L 414.896541 -41.24 
L 413.832607 -41.24 
L 412.768672 -41.24 
L 411.704737 -41.24 
L 410.640802 -41.24 
L 409.576867 -41.24 
L 408.512932 -41.24 
L 407.448997 -41.24 
L 406.385063 -41.24 
L 405.321128 -41.24 
L 404.257193 -41.24 
L 403.193258 -41.24 
L 402.129323 -41.24 
L 401.065388 -41.24 
L 400.001454 -41.24 
L 398.937519 -41.24 
L 397.873584 -41.24 
L 396.809649 -41.24 
L 395.745714 -41.24 
L 394.681779 -41.24 
L 393.617845 -41.24 
L 392.55391 -41.24 
L 391.489975 -41.24 
L 390.42604 -41.24 
L 389.362105 -41.24 
L 388.29817 -41.24 
L 387.234236 -41.24 
L 386.170301 -41.24 
L 385.106366 -41.24 
L 384.042431 -41.24 
L 382.978496 -41.24 
L 381.914561 -41.24 
L 380.850627 -41.24 
L 379.786692 -41.24 
L 378.722757 -41.24 
L 377.658822 -41.24 
L 376.594887 -41.24 
L 375.530952 -41.24 
L 374.467018 -41.24 
L 373.403083 -41.24 
L 372.339148 -41.24 
L 371.275213 -41.24 
L 370.211278 -41.24 
L 369.147343 -41.24 
L 368.083409 -41.24 
L 367.019474 -41.24 
L 365.955539 -41.24 
L 364.891604 -41.24 
L 363.827669 -41.24 
L 362.763734 -41.24 
L 361.699799 -41.24 
L 360.635865 -41.24 
L 359.57193 -41.24 
L 358.507995 -41.24 
L 357.44406 -41.24 
L 356.380125 -41.24 
L 355.31619 -41.24 
L 354.252256 -41.24 
L 353.188321 -41.24 
L 352.124386 -41.24 
L 351.060451 -41.24 
L 349.996516 -41.24 
L 348.932581 -41.24 
L 347.868647 -41.24 
L 346.804712 -41.24 
L 345.740777 -41.24 
L 344.676842 -41.24 
L 343.612907 -41.24 
L 342.548972 -41.24 
L 341.485038 -41.24 
L 340.421103 -41.24 
L 339.357168 -41.24 
L 338.293233 -41.24 
L 337.229298 -41.24 
L 336.165363 -41.24 
L 335.101429 -41.24 
L 334.037494 -41.24 
L 332.973559 -41.24 
L 331.909624 -41.24 
L 330.845689 -41.24 
L 329.781754 -41.24 
L 328.71782 -41.24 
L 327.653885 -41.24 
L 326.58995 -41.24 
L 325.526015 -41.24 
L 324.46208 -41.24 
L 323.398145 -41.24 
L 322.334211 -41.24 
L 321.270276 -41.24 
L 320.206341 -41.24 
L 319.142406 -41.24 
L 318.078471 -41.24 
L 317.014536 -41.24 
L 315.950602 -41.24 
L 314.886667 -41.24 
L 313.822732 -41.24 
L 312.758797 -41.24 
L 311.694862 -41.24 
L 310.630927 -41.24 
L 309.566992 -41.24 
L 308.503058 -41.24 
L 307.439123 -41.24 
L 306.375188 -41.24 
L 305.311253 -41.24 
L 304.247318 -41.24 
L 303.183383 -41.24 
L 302.119449 -41.24 
L 301.055514 -41.24 
L 299.991579 -41.24 
L 298.927644 -41.24 
L 297.863709 -41.24 
L 296.799774 -41.24 
L 295.73584 -41.24 
L 294.671905 -41.24 
L 293.60797 -41.24 
L 292.544035 -41.24 
L 291.4801 -41.24 
L 290.416165 -41.24 
L 289.352231 -41.24 
L 288.288296 -41.24 
L 287.224361 -41.24 
L 286.160426 -41.24 
L 285.096491 -41.24 
L 284.032556 -41.24 
L 282.968622 -41.24 
L 281.904687 -41.24 
L 280.840752 -41.24 
L 279.776817 -41.24 
L 278.712882 -41.24 
L 277.648947 -41.24 
L 276.585013 -41.24 
L 275.521078 -41.24 
L 274.457143 -41.24 
L 273.393208 -41.24 
L 272.329273 -41.24 
L 271.265338 -41.24 
L 270.201404 -41.24 
L 269.137469 -41.24 
L 268.073534 -41.24 
L 267.009599 -41.24 
L 265.945664 -41.24 
L 264.881729 -41.24 
L 263.817794 -41.24 
L 262.75386 -41.24 
L 261.689925 -41.24 
L 260.62599 -41.24 
L 259.562055 -41.24 
L 258.49812 -41.24 
L 257.434185 -41.24 
L 256.370251 -41.24 
L 255.306316 -41.24 
L 254.242381 -41.24 
L 253.178446 -41.24 
L 252.114511 -41.24 
L 251.050576 -41.24 
L 249.986642 -41.24 
L 248.922707 -41.24 
L 247.858772 -41.24 
L 246.794837 -41.24 
L 245.730902 -41.24 
L 244.666967 -41.24 
L 243.603033 -41.24 
L 242.539098 -41.24 
L 241.475163 -41.24 
L 240.411228 -41.24 
L 239.347293 -41.24 
L 238.283358 -41.24 
L 237.219424 -41.24 
L 236.155489 -41.24 
L 235.091554 -41.24 
L 234.027619 -41.24 
L 232.963684 -41.24 
L 231.899749 -41.24 
L 230.835815 -41.24 
L 229.77188 -41.24 
L 228.707945 -41.24 
L 227.64401 -41.24 
L 226.580075 -41.24 
L 225.51614 -41.24 
L 224.452206 -41.24 
L 223.388271 -41.24 
L 222.324336 -41.24 
L 221.260401 -41.24 
L 220.196466 -41.24 
L 219.132531 -41.24 
L 218.068596 -41.24 
L 217.004662 -41.24 
L 215.940727 -41.24 
L 214.876792 -41.24 
L 213.812857 -41.24 
L 212.748922 -41.24 
L 211.684987 -41.24 
L 210.621053 -41.24 
L 209.557118 -41.24 
L 208.493183 -41.24 
L 207.429248 -41.24 
L 206.365313 -41.24 
L 205.301378 -41.24 
L 204.237444 -41.24 
L 203.173509 -41.24 
L 202.109574 -41.24 
L 201.045639 -41.24 
L 199.981704 -41.24 
L 198.917769 -41.24 
L 197.853835 -41.24 
L 196.7899 -41.24 
L 195.725965 -41.24 
L 194.66203 -41.24 
L 193.598095 -41.24 
L 192.53416 -41.24 
L 191.470226 -41.24 
L 190.406291 -41.24 
L 189.342356 -41.24 
L 188.278421 -41.24 
L 187.214486 -41.24 
L 186.150551 -41.24 
L 185.086617 -41.24 
L 184.022682 -41.24 
L 182.958747 -41.24 
L 181.894812 -41.24 
L 180.830877 -41.24 
L 179.766942 -41.24 
L 178.703008 -41.24 
L 177.639073 -41.24 
L 176.575138 -41.24 
L 175.511203 -41.24 
L 174.447268 -41.24 
L 173.383333 -41.24 
L 172.319398 -41.24 
L 171.255464 -41.24 
L 170.191529 -41.24 
L 169.127594 -41.24 
L 168.063659 -41.24 
L 166.999724 -41.24 
L 165.935789 -41.24 
L 164.871855 -41.24 
L 163.80792 -41.24 
L 162.743985 -41.24 
L 161.68005 -41.24 
L 160.616115 -41.24 
L 159.55218 -41.24 
L 158.488246 -41.24 
L 157.424311 -41.24 
L 156.360376 -41.24 
L 155.296441 -41.24 
L 154.232506 -41.24 
L 153.168571 -41.24 
L 152.104637 -41.24 
L 151.040702 -41.24 
L 149.976767 -41.24 
L 148.912832 -41.24 
L 147.848897 -41.24 
L 146.784962 -41.24 
L 145.721028 -41.24 
L 144.657093 -41.24 
L 143.593158 -41.24 
L 142.529223 -41.24 
L 141.465288 -41.24 
L 140.401353 -41.24 
L 139.337419 -41.24 
L 138.273484 -41.24 
L 137.209549 -41.24 
L 136.145614 -41.24 
L 135.081679 -41.24 
L 134.017744 -41.24 
L 132.95381 -41.24 
L 131.889875 -41.24 
L 130.82594 -41.24 
L 129.762005 -41.24 
L 128.69807 -41.24 
L 127.634135 -41.24 
L 126.570201 -41.24 
L 125.506266 -41.24 
L 124.442331 -41.24 
L 123.378396 -41.24 
L 122.314461 -41.24 
L 121.250526 -41.24 
L 120.186591 -41.24 
L 119.122657 -41.24 
L 118.058722 -41.24 
L 116.994787 -41.24 
L 115.930852 -41.24 
L 114.866917 -41.24 
L 113.802982 -41.24 
L 112.739048 -41.24 
L 111.675113 -41.24 
L 110.611178 -41.24 
L 109.547243 -41.24 
L 108.483308 -41.24 
L 107.419373 -41.24 
L 106.355439 -41.24 
L 105.291504 -41.24 
L 104.227569 -41.24 
L 103.163634 -41.24 
L 102.099699 -41.24 
L 101.035764 -41.24 
L 99.97183 -41.24 
L 98.907895 -41.24 
L 97.84396 -41.24 
L 96.780025 -41.24 
L 95.71609 -41.24 
L 94.652155 -41.24 
L 93.588221 -41.24 
L 92.524286 -41.24 
L 91.460351 -41.24 
L 90.396416 -41.24 
L 89.332481 -41.24 
L 88.268546 -41.24 
L 87.204612 -41.24 
L 86.140677 -41.24 
L 85.076742 -41.24 
L 84.012807 -41.24 
L 82.948872 -41.24 
L 81.884937 -41.24 
L 80.821003 -41.24 
L 79.757068 -41.24 
L 78.693133 -41.24 
L 77.629198 -41.24 
L 76.565263 -41.24 
L 75.501328 -41.24 
L 74.437393 -41.24 
L 73.373459 -41.24 
L 72.309524 -41.24 
L 71.245589 -41.24 
L 70.181654 -41.24 
L 69.117719 -41.24 
L 68.053784 -41.24 
L 66.98985 -41.24 
L 65.925915 -41.24 
L 64.86198 -41.24 
L 63.798045 -41.24 
L 62.73411 -41.24 
L 61.670175 -41.24 
L 60.606241 -41.24 
L 59.542306 -41.24 
L 58.478371 -41.24 
L 57.414436 -41.24 
L 56.350501 -41.24 
L 55.286566 -41.24 
L 54.222632 -41.24 
L 53.158697 -41.24 
L 52.094762 -41.24 
L 51.030827 -41.24 
L 49.966892 -41.24 
L 48.902957 -41.24 
L 47.839023 -41.24 
L 46.775088 -41.24 
L 45.711153 -41.24 
L 44.647218 -41.24 
L 43.583283 -41.24 
L 42.519348 -41.24 
L 41.455414 -41.24 
L 40.391479 -41.24 
L 39.327544 -41.24 
L 38.263609 -41.24 
L 37.199674 -41.24 
L 36.135739 -41.24 
L 35.071805 -41.24 
L 34.00787 -41.24 
L 32.943935 -41.24 
L 31.88 -41.24 
z
" style="stroke: #6f9bd1; stroke-opacity: 0.18"/>
    </defs>
    <g clip-path="url(#p5b2296515a)">
     <use xlink:href="#m61c050c1fc" x="0" y="252" style="fill: #6f9bd1; fill-opacity: 0.18; stroke: #6f9bd1; stroke-opacity: 0.18"/>
    </g>
   </g>
   <g id="matplotlib.axis_1">
    <g id="xtick_1">
     <g id="line2d_1">
      <defs>
       <path id="m0ffd0afe0b" d="M 0 0 
L 0 3.5 
" style="stroke: #6b7280; stroke-width: 0.8"/>
      </defs>
      <g>
       <use xlink:href="#m0ffd0afe0b" x="31.88" y="210.76" style="fill: #6b7280; stroke: #6b7280; stroke-width: 0.8"/>
      </g>
     </g>
     <g id="text_1">
      <!-- 0 -->
      <g style="fill: #6b7280" transform="translate(29.175938 224.218672) scale(0.085 -0.085)">
       <defs>
        <path id="DejaVuSans-30" d="M 2034 4250 
Q 1547 4250 1301 3770 
Q 1056 3291 1056 2328 
Q 1056 1369 1301 889 
Q 1547 409 2034 409 
Q 2525 409 2770 889 
Q 3016 1369 3016 2328 
Q 3016 3291 2770 3770 
Q 2525 4250 2034 4250 
z
M 2034 4750 
Q 2819 4750 3233 4129 
Q 3647 3509 3647 2328 
Q 3647 1150 3233 529 
Q 2819 -91 2034 -91 
Q 1250 -91 836 529 
Q 422 1150 422 2328 
Q 422 3509 836 4129 
Q 1250 4750 2034 4750 
z
" transform="scale(0.015625)"/>
       </defs>
       <use xlink:href="#DejaVuSans-30"/>
      </g>
     </g>
    </g>
    <g id="xtick_2">
     <g id="line2d_2">
      <g>
       <use xlink:href="#m0ffd0afe0b" x="74.331" y="210.76" style="fill: #6b7280; stroke: #6b7280; stroke-width: 0.8"/>
      </g>
     </g>
     <g id="text_2">
      <!-- 10 -->
      <g style="fill: #6b7280" transform="translate(68.922875 224.218672) scale(0.085 -0.085)">
       <defs>
        <path id="DejaVuSans-31" d="M 794 531 
L 1825 531 
L 1825 4091 
L 703 3866 
L 703 4441 
L 1819 4666 
L 2450 4666 
L 2450 531 
L 3481 531 
L 3481 0 
L 794 0 
L 794 531 
z
" transform="scale(0.015625)"/>
       </defs>
       <use xlink:href="#DejaVuSans-31"/>
       <use xlink:href="#DejaVuSans-30" transform="translate(63.623047 0)"/>
      </g>
     </g>
    </g>
    <g id="xtick_3">
     <g id="line2d_3">
      <g>
       <use xlink:href="#m0ffd0afe0b" x="116.782" y="210.76" style="fill: #6b7280; stroke: #6b7280; stroke-width: 0.8"/>
      </g>
     </g>
     <g id="text_3">
      <!-- 20 -->
      <g style="fill: #6b7280" transform="translate(111.373875 224.218672) scale(0.085 -0.085)">
       <defs>
        <path id="DejaVuSans-32" d="M 1228 531 
L 3431 531 
L 3431 0 
L 469 0 
L 469 531 
Q 828 903 1448 1529 
Q 2069 2156 2228 2338 
Q 2531 2678 2651 2914 
Q 2772 3150 2772 3378 
Q 2772 3750 2511 3984 
Q 2250 4219 1831 4219 
Q 1534 4219 1204 4116 
Q 875 4013 500 3803 
L 500 4441 
Q 881 4594 1212 4672 
Q 1544 4750 1819 4750 
Q 2544 4750 2975 4387 
Q 3406 4025 3406 3419 
Q 3406 3131 3298 2873 
Q 3191 2616 2906 2266 
Q 2828 2175 2409 1742 
Q 1991 1309 1228 531 
z
" transform="scale(0.015625)"/>
       </defs>
       <use xlink:href="#DejaVuSans-32"/>
       <use xlink:href="#DejaVuSans-30" transform="translate(63.623047 0)"/>
      </g>
     </g>
    </g>
    <g id="xtick_4">
     <g id="line2d_4">
      <g>
       <use xlink:href="#m0ffd0afe0b" x="159.233" y="210.76" style="fill: #6b7280; stroke: #6b7280; stroke-width: 0.8"/>
      </g>
     </g>
     <g id="text_4">
      <!-- 30 -->
      <g style="fill: #6b7280" transform="translate(153.824875 224.218672) scale(0.085 -0.085)">
       <defs>
        <path id="DejaVuSans-33" d="M 2597 2516 
Q 3050 2419 3304 2112 
Q 3559 1806 3559 1356 
Q 3559 666 3084 287 
Q 2609 -91 1734 -91 
Q 1441 -91 1130 -33 
Q 819 25 488 141 
L 488 750 
Q 750 597 1062 519 
Q 1375 441 1716 441 
Q 2309 441 2620 675 
Q 2931 909 2931 1356 
Q 2931 1769 2642 2001 
Q 2353 2234 1838 2234 
L 1294 2234 
L 1294 2753 
L 1863 2753 
Q 2328 2753 2575 2939 
Q 2822 3125 2822 3475 
Q 2822 3834 2567 4026 
Q 2313 4219 1838 4219 
Q 1578 4219 1281 4162 
Q 984 4106 628 3988 
L 628 4550 
Q 988 4650 1302 4700 
Q 1616 4750 1894 4750 
Q 2613 4750 3031 4423 
Q 3450 4097 3450 3541 
Q 3450 3153 3228 2886 
Q 3006 2619 2597 2516 
z
" transform="scale(0.015625)"/>
       </defs>
       <use xlink:href="#DejaVuSans-33"/>
       <use xlink:href="#DejaVuSans-30" transform="translate(63.623047 0)"/>
      </g>
     </g>
    </g>
    <g id="xtick_5">
     <g id="line2d_5">
      <g>
       <use xlink:href="#m0ffd0afe0b" x="201.684" y="210.76" style="fill: #6b7280; stroke: #6b7280; stroke-width: 0.8"/>
      </g>
     </g>
     <g id="text_5">
      <!-- 40 -->
      <g style="fill: #6b7280" transform="translate(196.275875 224.218672) scale(0.085 -0.085)">
       <defs>
        <path id="DejaVuSans-34" d="M 2419 4116 
L 825 1625 
L 2419 1625 
L 2419 4116 
z
M 2253 4666 
L 3047 4666 
L 3047 1625 
L 3713 1625 
L 3713 1100 
L 3047 1100 
L 3047 0 
L 2419 0 
L 2419 1100 
L 313 1100 
L 313 1709 
L 2253 4666 
z
" transform="scale(0.015625)"/>
       </defs>
       <use xlink:href="#DejaVuSans-34"/>
       <use xlink:href="#DejaVuSans-30" transform="translate(63.623047 0)"/>
      </g>
     </g>
    </g>
    <g id="xtick_6">
     <g id="line2d_6">
      <g>
       <use xlink:href="#m0ffd0afe0b" x="244.135" y="210.76" style="fill: #6b7280; stroke: #6b7280; stroke-width: 0.8"/>
      </g>
     </g>
     <g id="text_6">
      <!-- 50 -->
      <g style="fill: #6b7280" transform="translate(238.726875 224.218672) scale(0.085 -0.085)">
       <defs>
        <path id="DejaVuSans-35" d="M 691 4666 
L 3169 4666 
L 3169 4134 
L 1269 4134 
L 1269 2991 
Q 1406 3038 1543 3061 
Q 1681 3084 1819 3084 
Q 2600 3084 3056 2656 
Q 3513 2228 3513 1497 
Q 3513 744 3044 326 
Q 2575 -91 1722 -91 
Q 1428 -91 1123 -41 
Q 819 9 494 109 
L 494 744 
Q 775 591 1075 516 
Q 1375 441 1709 441 
Q 2250 441 2565 725 
Q 2881 1009 2881 1497 
Q 2881 1984 2565 2268 
Q 2250 2553 1709 2553 
Q 1456 2553 1204 2497 
Q 953 2441 691 2322 
L 691 4666 
z
" transform="scale(0.015625)"/>
       </defs>
       <use xlink:href="#DejaVuSans-35"/>
       <use xlink:href="#DejaVuSans-30" transform="translate(63.623047 0)"/>
      </g>
     </g>
    </g>
    <g id="xtick_7">
     <g id="line2d_7">
      <g>
       <use xlink:href="#m0ffd0afe0b" x="286.586" y="210.76" style="fill: #6b7280; stroke: #6b7280; stroke-width: 0.8"/>
      </g>
     </g>
     <g id="text_7">
      <!-- 60 -->
      <g style="fill: #6b7280" transform="translate(281.177875 224.218672) scale(0.085 -0.085)">
       <defs>
        <path id="DejaVuSans-36" d="M 2113 2584 
Q 1688 2584 1439 2293 
Q 1191 2003 1191 1497 
Q 1191 994 1439 701 
Q 1688 409 2113 409 
Q 2538 409 2786 701 
Q 3034 994 3034 1497 
Q 3034 2003 2786 2293 
Q 2538 2584 2113 2584 
z
M 3366 4563 
L 3366 3988 
Q 3128 4100 2886 4159 
Q 2644 4219 2406 4219 
Q 1781 4219 1451 3797 
Q 1122 3375 1075 2522 
Q 1259 2794 1537 2939 
Q 1816 3084 2150 3084 
Q 2853 3084 3261 2657 
Q 3669 2231 3669 1497 
Q 3669 778 3244 343 
Q 2819 -91 2113 -91 
Q 1303 -91 875 529 
Q 447 1150 447 2328 
Q 447 3434 972 4092 
Q 1497 4750 2381 4750 
Q 2619 4750 2861 4703 
Q 3103 4656 3366 4563 
z
" transform="scale(0.015625)"/>
       </defs>
       <use xlink:href="#DejaVuSans-36"/>
       <use xlink:href="#DejaVuSans-30" transform="translate(63.623047 0)"/>
      </g>
     </g>
    </g>
    <g id="xtick_8">
     <g id="line2d_8">
      <g>
       <use xlink:href="#m0ffd0afe0b" x="329.037" y="210.76" style="fill: #6b7280; stroke: #6b7280; stroke-width: 0.8"/>
      </g>
     </g>
     <g id="text_8">
      <!-- 70 -->
      <g style="fill: #6b7280" transform="translate(323.628875 224.218672) scale(0.085 -0.085)">
       <defs>
        <path id="DejaVuSans-37" d="M 525 4666 
L 3525 4666 
L 3525 4397 
L 1831 0 
L 1172 0 
L 2766 4134 
L 525 4134 
L 525 4666 
z
" transform="scale(0.015625)"/>
       </defs>
       <use xlink:href="#DejaVuSans-37"/>
       <use xlink:href="#DejaVuSans-30" transform="translate(63.623047 0)"/>
      </g>
     </g>
    </g>
    <g id="xtick_9">
     <g id="line2d_9">
      <g>
       <use xlink:href="#m0ffd0afe0b" x="371.488" y="210.76" style="fill: #6b7280; stroke: #6b7280; stroke-width: 0.8"/>
      </g>
     </g>
     <g id="text_9">
      <!-- 80 -->
      <g style="fill: #6b7280" transform="translate(366.079875 224.218672) scale(0.085 -0.085)">
       <defs>
        <path id="DejaVuSans-38" d="M 2034 2216 
Q 1584 2216 1326 1975 
Q 1069 1734 1069 1313 
Q 1069 891 1326 650 
Q 1584 409 2034 409 
Q 2484 409 2743 651 
Q 3003 894 3003 1313 
Q 3003 1734 2745 1975 
Q 2488 2216 2034 2216 
z
M 1403 2484 
Q 997 2584 770 2862 
Q 544 3141 544 3541 
Q 544 4100 942 4425 
Q 1341 4750 2034 4750 
Q 2731 4750 3128 4425 
Q 3525 4100 3525 3541 
Q 3525 3141 3298 2862 
Q 3072 2584 2669 2484 
Q 3125 2378 3379 2068 
Q 3634 1759 3634 1313 
Q 3634 634 3220 271 
Q 2806 -91 2034 -91 
Q 1263 -91 848 271 
Q 434 634 434 1313 
Q 434 1759 690 2068 
Q 947 2378 1403 2484 
z
M 1172 3481 
Q 1172 3119 1398 2916 
Q 1625 2713 2034 2713 
Q 2441 2713 2670 2916 
Q 2900 3119 2900 3481 
Q 2900 3844 2670 4047 
Q 2441 4250 2034 4250 
Q 1625 4250 1398 4047 
Q 1172 3844 1172 3481 
z
" transform="scale(0.015625)"/>
       </defs>
       <use xlink:href="#DejaVuSans-38"/>
       <use xlink:href="#DejaVuSans-30" transform="translate(63.623047 0)"/>
      </g>
     </g>
    </g>
    <g id="xtick_10">
     <g id="line2d_10">
      <g>
       <use xlink:href="#m0ffd0afe0b" x="413.939" y="210.76" style="fill: #6b7280; stroke: #6b7280; stroke-width: 0.8"/>
      </g>
     </g>
     <g id="text_10">
      <!-- 90 -->
      <g style="fill: #6b7280" transform="translate(408.530875 224.218672) scale(0.085 -0.085)">
       <defs>
        <path id="DejaVuSans-39" d="M 703 97 
L 703 672 
Q 941 559 1184 500 
Q 1428 441 1663 441 
Q 2288 441 2617 861 
Q 2947 1281 2994 2138 
Q 2813 1869 2534 1725 
Q 2256 1581 1919 1581 
Q 1219 1581 811 2004 
Q 403 2428 403 3163 
Q 403 3881 828 4315 
Q 1253 4750 1959 4750 
Q 2769 4750 3195 4129 
Q 3622 3509 3622 2328 
Q 3622 1225 3098 567 
Q 2575 -91 1691 -91 
Q 1453 -91 1209 -44 
Q 966 3 703 97 
z
M 1959 2075 
Q 2384 2075 2632 2365 
Q 2881 2656 2881 3163 
Q 2881 3666 2632 3958 
Q 2384 4250 1959 4250 
Q 1534 4250 1286 3958 
Q 1038 3666 1038 3163 
Q 1038 2656 1286 2365 
Q 1534 2075 1959 2075 
z
" transform="scale(0.015625)"/>
       </defs>
       <use xlink:href="#DejaVuSans-39"/>
       <use xlink:href="#DejaVuSans-30" transform="translate(63.623047 0)"/>
      </g>
     </g>
    </g>
    <g id="xtick_11">
     <g id="line2d_11">
      <g>
       <use xlink:href="#m0ffd0afe0b" x="456.39" y="210.76" style="fill: #6b7280; stroke: #6b7280; stroke-width: 0.8"/>
      </g>
     </g>
     <g id="text_11">
      <!-- 100 -->
      <g style="fill: #6b7280" transform="translate(448.277812 224.218672) scale(0.085 -0.085)">
       <use xlink:href="#DejaVuSans-31"/>
       <use xlink:href="#DejaVuSans-30" transform="translate(63.623047 0)"/>
       <use xlink:href="#DejaVuSans-30" transform="translate(127.246094 0)"/>
      </g>
     </g>
    </g>
    <g id="text_12">
     <!-- Judge score (%) -->
     <g style="fill: #cfd3da" transform="translate(204.802969 237.584844) scale(0.1 -0.1)">
      <defs>
       <path id="DejaVuSans-4a" d="M 628 4666 
L 1259 4666 
L 1259 325 
Q 1259 -519 939 -900 
Q 619 -1281 -91 -1281 
L -331 -1281 
L -331 -750 
L -134 -750 
Q 284 -750 456 -515 
Q 628 -281 628 325 
L 628 4666 
z
" transform="scale(0.015625)"/>
       <path id="DejaVuSans-75" d="M 544 1381 
L 544 3500 
L 1119 3500 
L 1119 1403 
Q 1119 906 1312 657 
Q 1506 409 1894 409 
Q 2359 409 2629 706 
Q 2900 1003 2900 1516 
L 2900 3500 
L 3475 3500 
L 3475 0 
L 2900 0 
L 2900 538 
Q 2691 219 2414 64 
Q 2138 -91 1772 -91 
Q 1169 -91 856 284 
Q 544 659 544 1381 
z
M 1991 3584 
L 1991 3584 
z
" transform="scale(0.015625)"/>
       <path id="DejaVuSans-64" d="M 2906 2969 
L 2906 4863 
L 3481 4863 
L 3481 0 
L 2906 0 
L 2906 525 
Q 2725 213 2448 61 
Q 2172 -91 1784 -91 
Q 1150 -91 751 415 
Q 353 922 353 1747 
Q 353 2572 751 3078 
Q 1150 3584 1784 3584 
Q 2172 3584 2448 3432 
Q 2725 3281 2906 2969 
z
M 947 1747 
Q 947 1113 1208 752 
Q 1469 391 1925 391 
Q 2381 391 2643 752 
Q 2906 1113 2906 1747 
Q 2906 2381 2643 2742 
Q 2381 3103 1925 3103 
Q 1469 3103 1208 2742 
Q 947 2381 947 1747 
z
" transform="scale(0.015625)"/>
       <path id="DejaVuSans-67" d="M 2906 1791 
Q 2906 2416 2648 2759 
Q 2391 3103 1925 3103 
Q 1463 3103 1205 2759 
Q 947 2416 947 1791 
Q 947 1169 1205 825 
Q 1463 481 1925 481 
Q 2391 481 2648 825 
Q 2906 1169 2906 1791 
z
M 3481 434 
Q 3481 -459 3084 -895 
Q 2688 -1331 1869 -1331 
Q 1566 -1331 1297 -1286 
Q 1028 -1241 775 -1147 
L 775 -588 
Q 1028 -725 1275 -790 
Q 1522 -856 1778 -856 
Q 2344 -856 2625 -561 
Q 2906 -266 2906 331 
L 2906 616 
Q 2728 306 2450 153 
Q 2172 0 1784 0 
Q 1141 0 747 490 
Q 353 981 353 1791 
Q 353 2603 747 3093 
Q 1141 3584 1784 3584 
Q 2172 3584 2450 3431 
Q 2728 3278 2906 2969 
L 2906 3500 
L 3481 3500 
L 3481 434 
z
" transform="scale(0.015625)"/>
       <path id="DejaVuSans-65" d="M 3597 1894 
L 3597 1613 
L 953 1613 
Q 991 1019 1311 708 
Q 1631 397 2203 397 
Q 2534 397 2845 478 
Q 3156 559 3463 722 
L 3463 178 
Q 3153 47 2828 -22 
Q 2503 -91 2169 -91 
Q 1331 -91 842 396 
Q 353 884 353 1716 
Q 353 2575 817 3079 
Q 1281 3584 2069 3584 
Q 2775 3584 3186 3129 
Q 3597 2675 3597 1894 
z
M 3022 2063 
Q 3016 2534 2758 2815 
Q 2500 3097 2075 3097 
Q 1594 3097 1305 2825 
Q 1016 2553 972 2059 
L 3022 2063 
z
" transform="scale(0.015625)"/>
       <path id="DejaVuSans-20" transform="scale(0.015625)"/>
       <path id="DejaVuSans-73" d="M 2834 3397 
L 2834 2853 
Q 2591 2978 2328 3040 
Q 2066 3103 1784 3103 
Q 1356 3103 1142 2972 
Q 928 2841 928 2578 
Q 928 2378 1081 2264 
Q 1234 2150 1697 2047 
L 1894 2003 
Q 2506 1872 2764 1633 
Q 3022 1394 3022 966 
Q 3022 478 2636 193 
Q 2250 -91 1575 -91 
Q 1294 -91 989 -36 
Q 684 19 347 128 
L 347 722 
Q 666 556 975 473 
Q 1284 391 1588 391 
Q 1994 391 2212 530 
Q 2431 669 2431 922 
Q 2431 1156 2273 1281 
Q 2116 1406 1581 1522 
L 1381 1569 
Q 847 1681 609 1914 
Q 372 2147 372 2553 
Q 372 3047 722 3315 
Q 1072 3584 1716 3584 
Q 2034 3584 2315 3537 
Q 2597 3491 2834 3397 
z
" transform="scale(0.015625)"/>
       <path id="DejaVuSans-63" d="M 3122 3366 
L 3122 2828 
Q 2878 2963 2633 3030 
Q 2388 3097 2138 3097 
Q 1578 3097 1268 2742 
Q 959 2388 959 1747 
Q 959 1106 1268 751 
Q 1578 397 2138 397 
Q 2388 397 2633 464 
Q 2878 531 3122 666 
L 3122 134 
Q 2881 22 2623 -34 
Q 2366 -91 2075 -91 
Q 1284 -91 818 406 
Q 353 903 353 1747 
Q 353 2603 823 3093 
Q 1294 3584 2113 3584 
Q 2378 3584 2631 3529 
Q 2884 3475 3122 3366 
z
" transform="scale(0.015625)"/>
       <path id="DejaVuSans-6f" d="M 1959 3097 
Q 1497 3097 1228 2736 
Q 959 2375 959 1747 
Q 959 1119 1226 758 
Q 1494 397 1959 397 
Q 2419 397 2687 759 
Q 2956 1122 2956 1747 
Q 2956 2369 2687 2733 
Q 2419 3097 1959 3097 
z
M 1959 3584 
Q 2709 3584 3137 3096 
Q 3566 2609 3566 1747 
Q 3566 888 3137 398 
Q 2709 -91 1959 -91 
Q 1206 -91 779 398 
Q 353 888 353 1747 
Q 353 2609 779 3096 
Q 1206 3584 1959 3584 
z
" transform="scale(0.015625)"/>
       <path id="DejaVuSans-72" d="M 2631 2963 
Q 2534 3019 2420 3045 
Q 2306 3072 2169 3072 
Q 1681 3072 1420 2755 
Q 1159 2438 1159 1844 
L 1159 0 
L 581 0 
L 581 3500 
L 1159 3500 
L 1159 2956 
Q 1341 3275 1631 3429 
Q 1922 3584 2338 3584 
Q 2397 3584 2469 3576 
Q 2541 3569 2628 3553 
L 2631 2963 
z
" transform="scale(0.015625)"/>
       <path id="DejaVuSans-28" d="M 1984 4856 
Q 1566 4138 1362 3434 
Q 1159 2731 1159 2009 
Q 1159 1288 1364 580 
Q 1569 -128 1984 -844 
L 1484 -844 
Q 1016 -109 783 600 
Q 550 1309 550 2009 
Q 550 2706 781 3412 
Q 1013 4119 1484 4856 
L 1984 4856 
z
" transform="scale(0.015625)"/>
       <path id="DejaVuSans-25" d="M 4653 2053 
Q 4381 2053 4226 1822 
Q 4072 1591 4072 1178 
Q 4072 772 4226 539 
Q 4381 306 4653 306 
Q 4919 306 5073 539 
Q 5228 772 5228 1178 
Q 5228 1588 5073 1820 
Q 4919 2053 4653 2053 
z
M 4653 2450 
Q 5147 2450 5437 2106 
Q 5728 1763 5728 1178 
Q 5728 594 5436 251 
Q 5144 -91 4653 -91 
Q 4153 -91 3862 251 
Q 3572 594 3572 1178 
Q 3572 1766 3864 2108 
Q 4156 2450 4653 2450 
z
M 1428 4353 
Q 1159 4353 1004 4120 
Q 850 3888 850 3481 
Q 850 3069 1003 2837 
Q 1156 2606 1428 2606 
Q 1700 2606 1854 2837 
Q 2009 3069 2009 3481 
Q 2009 3884 1853 4118 
Q 1697 4353 1428 4353 
z
M 4250 4750 
L 4750 4750 
L 1831 -91 
L 1331 -91 
L 4250 4750 
z
M 1428 4750 
Q 1922 4750 2215 4408 
Q 2509 4066 2509 3481 
Q 2509 2891 2217 2550 
Q 1925 2209 1428 2209 
Q 931 2209 642 2551 
Q 353 2894 353 3481 
Q 353 4063 643 4406 
Q 934 4750 1428 4750 
z
" transform="scale(0.015625)"/>
       <path id="DejaVuSans-29" d="M 513 4856 
L 1013 4856 
Q 1481 4119 1714 3412 
Q 1947 2706 1947 2009 
Q 1947 1309 1714 600 
Q 1481 -109 1013 -844 
L 513 -844 
Q 928 -128 1133 580 
Q 1338 1288 1338 2009 
Q 1338 2731 1133 3434 
Q 928 4138 513 4856 
z
" transform="scale(0.015625)"/>
      </defs>
      <use xlink:href="#DejaVuSans-4a"/>
      <use xlink:href="#DejaVuSans-75" transform="translate(29.492188 0)"/>
      <use xlink:href="#DejaVuSans-64" transform="translate(92.871094 0)"/>
      <use xlink:href="#DejaVuSans-67" transform="translate(156.347656 0)"/>
      <use xlink:href="#DejaVuSans-65" transform="translate(219.824219 0)"/>
      <use xlink:href="#DejaVuSans-20" transform="translate(281.347656 0)"/>
      <use xlink:href="#DejaVuSans-73" transform="translate(313.134766 0)"/>
      <use xlink:href="#DejaVuSans-63" transform="translate(365.234375 0)"/>
      <use xlink:href="#DejaVuSans-6f" transform="translate(420.214844 0)"/>
      <use xlink:href="#DejaVuSans-72" transform="translate(481.396484 0)"/>
      <use xlink:href="#DejaVuSans-65" transform="translate(520.259766 0)"/>
      <use xlink:href="#DejaVuSans-20" transform="translate(581.783203 0)"/>
      <use xlink:href="#DejaVuSans-28" transform="translate(613.570312 0)"/>
      <use xlink:href="#DejaVuSans-25" transform="translate(652.583984 0)"/>
      <use xlink:href="#DejaVuSans-29" transform="translate(747.603516 0)"/>
     </g>
    </g>
   </g>
   <g id="matplotlib.axis_2">
    <g id="ytick_1">
     <g id="line2d_12">
      <defs>
       <path id="me40b269b87" d="M 0 0 
L -3.5 0 
" style="stroke: #6b7280; stroke-width: 0.8"/>
      </defs>
      <g>
       <use xlink:href="#me40b269b87" x="31.88" y="210.76" style="fill: #6b7280; stroke: #6b7280; stroke-width: 0.8"/>
      </g>
     </g>
    </g>
    <g id="ytick_2">
     <g id="line2d_13">
      <g>
       <use xlink:href="#me40b269b87" x="31.88" y="189.462324" style="fill: #6b7280; stroke: #6b7280; stroke-width: 0.8"/>
      </g>
     </g>
    </g>
    <g id="ytick_3">
     <g id="line2d_14">
      <g>
       <use xlink:href="#me40b269b87" x="31.88" y="168.164647" style="fill: #6b7280; stroke: #6b7280; stroke-width: 0.8"/>
      </g>
     </g>
    </g>
    <g id="ytick_4">
     <g id="line2d_15">
      <g>
       <use xlink:href="#me40b269b87" x="31.88" y="146.866971" style="fill: #6b7280; stroke: #6b7280; stroke-width: 0.8"/>
      </g>
     </g>
    </g>
    <g id="ytick_5">
     <g id="line2d_16">
      <g>
       <use xlink:href="#me40b269b87" x="31.88" y="125.569295" style="fill: #6b7280; stroke: #6b7280; stroke-width: 0.8"/>
      </g>
     </g>
    </g>
    <g id="ytick_6">
     <g id="line2d_17">
      <g>
       <use xlink:href="#me40b269b87" x="31.88" y="104.271618" style="fill: #6b7280; stroke: #6b7280; stroke-width: 0.8"/>
      </g>
     </g>
    </g>
    <g id="ytick_7">
     <g id="line2d_18">
      <g>
       <use xlink:href="#me40b269b87" x="31.88" y="82.973942" style="fill: #6b7280; stroke: #6b7280; stroke-width: 0.8"/>
      </g>
     </g>
    </g>
    <g id="ytick_8">
     <g id="line2d_19">
      <g>
       <use xlink:href="#me40b269b87" x="31.88" y="61.676266" style="fill: #6b7280; stroke: #6b7280; stroke-width: 0.8"/>
      </g>
     </g>
    </g>
    <g id="ytick_9">
     <g id="line2d_20">
      <g>
       <use xlink:href="#me40b269b87" x="31.88" y="40.378589" style="fill: #6b7280; stroke: #6b7280; stroke-width: 0.8"/>
      </g>
     </g>
    </g>
    <g id="text_13">
     <!-- Density -->
     <g style="fill: #cfd3da" transform="translate(18.800313 139.108594) rotate(-90) scale(0.1 -0.1)">
      <defs>
       <path id="DejaVuSans-44" d="M 1259 4147 
L 1259 519 
L 2022 519 
Q 2988 519 3436 956 
Q 3884 1394 3884 2338 
Q 3884 3275 3436 3711 
Q 2988 4147 2022 4147 
L 1259 4147 
z
M 628 4666 
L 1925 4666 
Q 3281 4666 3915 4102 
Q 4550 3538 4550 2338 
Q 4550 1131 3912 565 
Q 3275 0 1925 0 
L 628 0 
L 628 4666 
z
" transform="scale(0.015625)"/>
       <path id="DejaVuSans-6e" d="M 3513 2113 
L 3513 0 
L 2938 0 
L 2938 2094 
Q 2938 2591 2744 2837 
Q 2550 3084 2163 3084 
Q 1697 3084 1428 2787 
Q 1159 2491 1159 1978 
L 1159 0 
L 581 0 
L 581 3500 
L 1159 3500 
L 1159 2956 
Q 1366 3272 1645 3428 
Q 1925 3584 2291 3584 
Q 2894 3584 3203 3211 
Q 3513 2838 3513 2113 
z
" transform="scale(0.015625)"/>
       <path id="DejaVuSans-69" d="M 603 3500 
L 1178 3500 
L 1178 0 
L 603 0 
L 603 3500 
z
M 603 4863 
L 1178 4863 
L 1178 4134 
L 603 4134 
L 603 4863 
z
" transform="scale(0.015625)"/>
       <path id="DejaVuSans-74" d="M 1172 4494 
L 1172 3500 
L 2356 3500 
L 2356 3053 
L 1172 3053 
L 1172 1153 
Q 1172 725 1289 603 
Q 1406 481 1766 481 
L 2356 481 
L 2356 0 
L 1766 0 
Q 1100 0 847 248 
Q 594 497 594 1153 
L 594 3053 
L 172 3053 
L 172 3500 
L 594 3500 
L 594 4494 
L 1172 4494 
z
" transform="scale(0.015625)"/>
       <path id="DejaVuSans-79" d="M 2059 -325 
Q 1816 -950 1584 -1140 
Q 1353 -1331 966 -1331 
L 506 -1331 
L 506 -850 
L 844 -850 
Q 1081 -850 1212 -737 
Q 1344 -625 1503 -206 
L 1606 56 
L 191 3500 
L 800 3500 
L 1894 763 
L 2988 3500 
L 3597 3500 
L 2059 -325 
z
" transform="scale(0.015625)"/>
      </defs>
      <use xlink:href="#DejaVuSans-44"/>
      <use xlink:href="#DejaVuSans-65" transform="translate(77.001953 0)"/>
      <use xlink:href="#DejaVuSans-6e" transform="translate(138.525391 0)"/>
      <use xlink:href="#DejaVuSans-73" transform="translate(201.904297 0)"/>
      <use xlink:href="#DejaVuSans-69" transform="translate(254.003906 0)"/>
      <use xlink:href="#DejaVuSans-74" transform="translate(281.787109 0)"/>
      <use xlink:href="#DejaVuSans-79" transform="translate(320.996094 0)"/>
     </g>
    </g>
   </g>
   <g id="line2d_21">
    <path d="M 31.88 159.11653 
L 41.455414 148.273898 
L 54.222632 133.833434 
L 61.670175 125.779351 
L 68.053784 119.243858 
L 73.373459 114.112711 
L 78.693133 109.300215 
L 84.012807 104.827434 
L 88.268546 101.503764 
L 92.524286 98.41233 
L 96.780025 95.557422 
L 101.035764 92.942664 
L 105.291504 90.571214 
L 109.547243 88.445684 
L 113.802982 86.567801 
L 118.058722 84.937823 
L 122.314461 83.553803 
L 126.570201 82.410796 
L 130.82594 81.500116 
L 135.081679 80.808778 
L 139.337419 80.31921 
L 144.657093 79.956978 
L 149.976767 79.823584 
L 156.360376 79.883093 
L 166.999724 80.245719 
L 179.766942 80.631746 
L 190.406291 80.697201 
L 210.621053 80.709135 
L 217.004662 80.965122 
L 223.388271 81.459208 
L 228.707945 82.082465 
L 234.027619 82.908909 
L 239.347293 83.936284 
L 245.730902 85.417066 
L 252.114511 87.137739 
L 259.562055 89.401735 
L 267.009599 91.900779 
L 274.457143 94.617835 
L 281.904687 97.568969 
L 288.288296 100.31835 
L 294.671905 103.310405 
L 301.055514 106.58215 
L 306.375188 109.541428 
L 311.694862 112.717425 
L 318.078471 116.800939 
L 325.526015 121.880683 
L 336.165363 129.472485 
L 345.740777 136.235676 
L 352.124386 140.47063 
L 357.44406 143.717816 
L 361.699799 146.081423 
L 365.955539 148.20558 
L 370.211278 150.06865 
L 374.467018 151.656887 
L 378.722757 152.965101 
L 382.978496 153.996988 
L 387.234236 154.765139 
L 391.489975 155.290713 
L 395.745714 155.602825 
L 401.065388 155.748483 
L 407.448997 155.676347 
L 423.40802 155.369923 
L 428.727694 155.566615 
L 432.983434 155.933092 
L 437.239173 156.524093 
L 441.494912 157.367124 
L 445.750652 158.480898 
L 450.006391 159.874617 
L 454.26213 161.547633 
L 456.39 162.485993 
L 456.39 162.485993 
" clip-path="url(#p5b2296515a)" style="fill: none; stroke: #d8b14a; stroke-width: 2.2; stroke-linecap: square"/>
   </g>
   <g id="line2d_22">
    <path d="M 227.009054 210.76 
L 227.009054 29.44 
" clip-path="url(#p5b2296515a)" style="fill: none; stroke-dasharray: 5.18,2.24; stroke-dashoffset: 0; stroke: #d8b14a; stroke-opacity: 0.9; stroke-width: 1.4"/>
   </g>
   <g id="line2d_23">
    <path d="M 31.88 131.815373 
L 42.519348 114.104825 
L 52.094762 98.287336 
L 58.478371 88.171707 
L 63.798045 80.169401 
L 68.053784 74.11966 
L 72.309524 68.432459 
L 76.565263 63.14824 
L 80.821003 58.302528 
L 84.012807 54.974738 
L 87.204612 51.922428 
L 90.396416 49.155659 
L 93.588221 46.683228 
L 96.780025 44.51271 
L 99.97183 42.650458 
L 103.163634 41.101583 
L 106.355439 39.869891 
L 109.547243 38.95779 
L 112.739048 38.366172 
L 115.930852 38.094266 
L 119.122657 38.139484 
L 122.314461 38.497263 
L 125.506266 39.160916 
L 128.69807 40.121503 
L 131.889875 41.367744 
L 135.081679 42.885958 
L 138.273484 44.660077 
L 141.465288 46.671694 
L 144.657093 48.90019 
L 148.912832 52.169481 
L 153.168571 55.725384 
L 158.488246 60.477334 
L 165.935789 67.47251 
L 177.639073 78.498798 
L 182.958747 83.239825 
L 188.278421 87.677977 
L 192.53416 90.963021 
L 196.7899 93.984433 
L 201.045639 96.727191 
L 205.301378 99.186195 
L 209.557118 101.365946 
L 213.812857 103.279905 
L 218.068596 104.949557 
L 222.324336 106.403237 
L 227.64401 107.968554 
L 234.027619 109.57683 
L 245.730902 112.196396 
L 254.242381 114.218208 
L 260.62599 115.978205 
L 265.945664 117.67018 
L 271.265338 119.600741 
L 276.585013 121.787668 
L 281.904687 124.236086 
L 287.224361 126.939464 
L 292.544035 129.880896 
L 298.927644 133.687861 
L 306.375188 138.435775 
L 315.950602 144.846301 
L 331.909624 155.564105 
L 338.293233 159.598129 
L 343.612907 162.749048 
L 348.932581 165.655284 
L 354.252256 168.270988 
L 358.507995 170.126889 
L 362.763734 171.753083 
L 367.019474 173.13528 
L 371.275213 174.263135 
L 375.530952 175.130811 
L 379.786692 175.737495 
L 384.042431 176.087865 
L 388.29817 176.19244 
L 392.55391 176.067817 
L 396.809649 175.736715 
L 402.129323 175.076735 
L 408.512932 174.015448 
L 429.791629 170.194143 
L 434.047368 169.726984 
L 438.303108 169.458966 
L 442.558847 169.423327 
L 446.814586 169.64584 
L 451.070326 170.143747 
L 455.326065 170.925049 
L 456.39 171.164684 
L 456.39 171.164684 
" clip-path="url(#p5b2296515a)" style="fill: none; stroke: #6f9bd1; stroke-width: 2.2; stroke-linecap: square"/>
   </g>
   <g id="line2d_24">
    <path d="M 193.860887 210.76 
L 193.860887 29.44 
" clip-path="url(#p5b2296515a)" style="fill: none; stroke-dasharray: 5.18,2.24; stroke-dashoffset: 0; stroke: #6f9bd1; stroke-opacity: 0.9; stroke-width: 1.4"/>
   </g>
   <g id="patch_3">
    <path d="M 31.88 210.76 
L 456.39 210.76 
" style="fill: none; stroke: #2a2f37; stroke-width: 0.8; stroke-linejoin: miter; stroke-linecap: square"/>
   </g>
   <g id="text_14">
    <!-- Opus 4.8 score distribution — with vs. without the agent harness -->
    <g style="fill: #cfd3da" transform="translate(65.372109 19.44) scale(0.11 -0.11)">
     <defs>
      <path id="DejaVuSans-4f" d="M 2522 4238 
Q 1834 4238 1429 3725 
Q 1025 3213 1025 2328 
Q 1025 1447 1429 934 
Q 1834 422 2522 422 
Q 3209 422 3611 934 
Q 4013 1447 4013 2328 
Q 4013 3213 3611 3725 
Q 3209 4238 2522 4238 
z
M 2522 4750 
Q 3503 4750 4090 4092 
Q 4678 3434 4678 2328 
Q 4678 1225 4090 567 
Q 3503 -91 2522 -91 
Q 1538 -91 948 565 
Q 359 1222 359 2328 
Q 359 3434 948 4092 
Q 1538 4750 2522 4750 
z
" transform="scale(0.015625)"/>
      <path id="DejaVuSans-70" d="M 1159 525 
L 1159 -1331 
L 581 -1331 
L 581 3500 
L 1159 3500 
L 1159 2969 
Q 1341 3281 1617 3432 
Q 1894 3584 2278 3584 
Q 2916 3584 3314 3078 
Q 3713 2572 3713 1747 
Q 3713 922 3314 415 
Q 2916 -91 2278 -91 
Q 1894 -91 1617 61 
Q 1341 213 1159 525 
z
M 3116 1747 
Q 3116 2381 2855 2742 
Q 2594 3103 2138 3103 
Q 1681 3103 1420 2742 
Q 1159 2381 1159 1747 
Q 1159 1113 1420 752 
Q 1681 391 2138 391 
Q 2594 391 2855 752 
Q 3116 1113 3116 1747 
z
" transform="scale(0.015625)"/>
      <path id="DejaVuSans-2e" d="M 684 794 
L 1344 794 
L 1344 0 
L 684 0 
L 684 794 
z
" transform="scale(0.015625)"/>
      <path id="DejaVuSans-62" d="M 3116 1747 
Q 3116 2381 2855 2742 
Q 2594 3103 2138 3103 
Q 1681 3103 1420 2742 
Q 1159 2381 1159 1747 
Q 1159 1113 1420 752 
Q 1681 391 2138 391 
Q 2594 391 2855 752 
Q 3116 1113 3116 1747 
z
M 1159 2969 
Q 1341 3281 1617 3432 
Q 1894 3584 2278 3584 
Q 2916 3584 3314 3078 
Q 3713 2572 3713 1747 
Q 3713 922 3314 415 
Q 2916 -91 2278 -91 
Q 1894 -91 1617 61 
Q 1341 213 1159 525 
L 1159 0 
L 581 0 
L 581 4863 
L 1159 4863 
L 1159 2969 
z
" transform="scale(0.015625)"/>
      <path id="DejaVuSans-2014" d="M 313 1978 
L 6088 1978 
L 6088 1528 
L 313 1528 
L 313 1978 
z
" transform="scale(0.015625)"/>
      <path id="DejaVuSans-77" d="M 269 3500 
L 844 3500 
L 1563 769 
L 2278 3500 
L 2956 3500 
L 3675 769 
L 4391 3500 
L 4966 3500 
L 4050 0 
L 3372 0 
L 2619 2869 
L 1863 0 
L 1184 0 
L 269 3500 
z
" transform="scale(0.015625)"/>
      <path id="DejaVuSans-68" d="M 3513 2113 
L 3513 0 
L 2938 0 
L 2938 2094 
Q 2938 2591 2744 2837 
Q 2550 3084 2163 3084 
Q 1697 3084 1428 2787 
Q 1159 2491 1159 1978 
L 1159 0 
L 581 0 
L 581 4863 
L 1159 4863 
L 1159 2956 
Q 1366 3272 1645 3428 
Q 1925 3584 2291 3584 
Q 2894 3584 3203 3211 
Q 3513 2838 3513 2113 
z
" transform="scale(0.015625)"/>
      <path id="DejaVuSans-76" d="M 191 3500 
L 800 3500 
L 1894 563 
L 2988 3500 
L 3597 3500 
L 2284 0 
L 1503 0 
L 191 3500 
z
" transform="scale(0.015625)"/>
      <path id="DejaVuSans-61" d="M 2194 1759 
Q 1497 1759 1228 1600 
Q 959 1441 959 1056 
Q 959 750 1161 570 
Q 1363 391 1709 391 
Q 2188 391 2477 730 
Q 2766 1069 2766 1631 
L 2766 1759 
L 2194 1759 
z
M 3341 1997 
L 3341 0 
L 2766 0 
L 2766 531 
Q 2569 213 2275 61 
Q 1981 -91 1556 -91 
Q 1019 -91 701 211 
Q 384 513 384 1019 
Q 384 1609 779 1909 
Q 1175 2209 1959 2209 
L 2766 2209 
L 2766 2266 
Q 2766 2663 2505 2880 
Q 2244 3097 1772 3097 
Q 1472 3097 1187 3025 
Q 903 2953 641 2809 
L 641 3341 
Q 956 3463 1253 3523 
Q 1550 3584 1831 3584 
Q 2591 3584 2966 3190 
Q 3341 2797 3341 1997 
z
" transform="scale(0.015625)"/>
     </defs>
     <use xlink:href="#DejaVuSans-4f"/>
     <use xlink:href="#DejaVuSans-70" transform="translate(78.710938 0)"/>
     <use xlink:href="#DejaVuSans-75" transform="translate(142.1875 0)"/>
     <use xlink:href="#DejaVuSans-73" transform="translate(205.566406 0)"/>
     <use xlink:href="#DejaVuSans-20" transform="translate(257.666016 0)"/>
     <use xlink:href="#DejaVuSans-34" transform="translate(289.453125 0)"/>
     <use xlink:href="#DejaVuSans-2e" transform="translate(353.076172 0)"/>
     <use xlink:href="#DejaVuSans-38" transform="translate(384.863281 0)"/>
     <use xlink:href="#DejaVuSans-20" transform="translate(448.486328 0)"/>
     <use xlink:href="#DejaVuSans-73" transform="translate(480.273438 0)"/>
     <use xlink:href="#DejaVuSans-63" transform="translate(532.373047 0)"/>
     <use xlink:href="#DejaVuSans-6f" transform="translate(587.353516 0)"/>
     <use xlink:href="#DejaVuSans-72" transform="translate(648.535156 0)"/>
     <use xlink:href="#DejaVuSans-65" transform="translate(687.398438 0)"/>
     <use xlink:href="#DejaVuSans-20" transform="translate(748.921875 0)"/>
     <use xlink:href="#DejaVuSans-64" transform="translate(780.708984 0)"/>
     <use xlink:href="#DejaVuSans-69" transform="translate(844.185547 0)"/>
     <use xlink:href="#DejaVuSans-73" transform="translate(871.96875 0)"/>
     <use xlink:href="#DejaVuSans-74" transform="translate(924.068359 0)"/>
     <use xlink:href="#DejaVuSans-72" transform="translate(963.277344 0)"/>
     <use xlink:href="#DejaVuSans-69" transform="translate(1004.390625 0)"/>
     <use xlink:href="#DejaVuSans-62" transform="translate(1032.173828 0)"/>
     <use xlink:href="#DejaVuSans-75" transform="translate(1095.650391 0)"/>
     <use xlink:href="#DejaVuSans-74" transform="translate(1159.029297 0)"/>
     <use xlink:href="#DejaVuSans-69" transform="translate(1198.238281 0)"/>
     <use xlink:href="#DejaVuSans-6f" transform="translate(1226.021484 0)"/>
     <use xlink:href="#DejaVuSans-6e" transform="translate(1287.203125 0)"/>
     <use xlink:href="#DejaVuSans-20" transform="translate(1350.582031 0)"/>
     <use xlink:href="#DejaVuSans-2014" transform="translate(1382.369141 0)"/>
     <use xlink:href="#DejaVuSans-20" transform="translate(1482.369141 0)"/>
     <use xlink:href="#DejaVuSans-77" transform="translate(1514.15625 0)"/>
     <use xlink:href="#DejaVuSans-69" transform="translate(1595.943359 0)"/>
     <use xlink:href="#DejaVuSans-74" transform="translate(1623.726562 0)"/>
     <use xlink:href="#DejaVuSans-68" transform="translate(1662.935547 0)"/>
     <use xlink:href="#DejaVuSans-20" transform="translate(1726.314453 0)"/>
     <use xlink:href="#DejaVuSans-76" transform="translate(1758.101562 0)"/>
     <use xlink:href="#DejaVuSans-73" transform="translate(1817.28125 0)"/>
     <use xlink:href="#DejaVuSans-2e" transform="translate(1869.380859 0)"/>
     <use xlink:href="#DejaVuSans-20" transform="translate(1901.167969 0)"/>
     <use xlink:href="#DejaVuSans-77" transform="translate(1932.955078 0)"/>
     <use xlink:href="#DejaVuSans-69" transform="translate(2014.742188 0)"/>
     <use xlink:href="#DejaVuSans-74" transform="translate(2042.525391 0)"/>
     <use xlink:href="#DejaVuSans-68" transform="translate(2081.734375 0)"/>
     <use xlink:href="#DejaVuSans-6f" transform="translate(2145.113281 0)"/>
     <use xlink:href="#DejaVuSans-75" transform="translate(2206.294922 0)"/>
     <use xlink:href="#DejaVuSans-74" transform="translate(2269.673828 0)"/>
     <use xlink:href="#DejaVuSans-20" transform="translate(2308.882812 0)"/>
     <use xlink:href="#DejaVuSans-74" transform="translate(2340.669922 0)"/>
     <use xlink:href="#DejaVuSans-68" transform="translate(2379.878906 0)"/>
     <use xlink:href="#DejaVuSans-65" transform="translate(2443.257812 0)"/>
     <use xlink:href="#DejaVuSans-20" transform="translate(2504.78125 0)"/>
     <use xlink:href="#DejaVuSans-61" transform="translate(2536.568359 0)"/>
     <use xlink:href="#DejaVuSans-67" transform="translate(2597.847656 0)"/>
     <use xlink:href="#DejaVuSans-65" transform="translate(2661.324219 0)"/>
     <use xlink:href="#DejaVuSans-6e" transform="translate(2722.847656 0)"/>
     <use xlink:href="#DejaVuSans-74" transform="translate(2786.226562 0)"/>
     <use xlink:href="#DejaVuSans-20" transform="translate(2825.435547 0)"/>
     <use xlink:href="#DejaVuSans-68" transform="translate(2857.222656 0)"/>
     <use xlink:href="#DejaVuSans-61" transform="translate(2920.601562 0)"/>
     <use xlink:href="#DejaVuSans-72" transform="translate(2981.880859 0)"/>
     <use xlink:href="#DejaVuSans-6e" transform="translate(3021.244141 0)"/>
     <use xlink:href="#DejaVuSans-65" transform="translate(3084.623047 0)"/>
     <use xlink:href="#DejaVuSans-73" transform="translate(3146.146484 0)"/>
     <use xlink:href="#DejaVuSans-73" transform="translate(3198.246094 0)"/>
    </g>
   </g>
   <g id="legend_1">
    <g id="line2d_25">
     <path d="M 281.754766 41.883516 
L 291.254766 41.883516 
L 300.754766 41.883516 
" style="fill: none; stroke: #d8b14a; stroke-width: 2.2; stroke-linecap: square"/>
    </g>
    <g id="text_15">
     <!-- With harness — mean 46.0% -->
     <g style="fill: #cfd3da" transform="translate(308.354766 45.208516) scale(0.095 -0.095)">
      <defs>
       <path id="DejaVuSans-57" d="M 213 4666 
L 850 4666 
L 1831 722 
L 2809 4666 
L 3519 4666 
L 4500 722 
L 5478 4666 
L 6119 4666 
L 4947 0 
L 4153 0 
L 3169 4050 
L 2175 0 
L 1381 0 
L 213 4666 
z
" transform="scale(0.015625)"/>
       <path id="DejaVuSans-6d" d="M 3328 2828 
Q 3544 3216 3844 3400 
Q 4144 3584 4550 3584 
Q 5097 3584 5394 3201 
Q 5691 2819 5691 2113 
L 5691 0 
L 5113 0 
L 5113 2094 
Q 5113 2597 4934 2840 
Q 4756 3084 4391 3084 
Q 3944 3084 3684 2787 
Q 3425 2491 3425 1978 
L 3425 0 
L 2847 0 
L 2847 2094 
Q 2847 2600 2669 2842 
Q 2491 3084 2119 3084 
Q 1678 3084 1418 2786 
Q 1159 2488 1159 1978 
L 1159 0 
L 581 0 
L 581 3500 
L 1159 3500 
L 1159 2956 
Q 1356 3278 1631 3431 
Q 1906 3584 2284 3584 
Q 2666 3584 2933 3390 
Q 3200 3197 3328 2828 
z
" transform="scale(0.015625)"/>
      </defs>
      <use xlink:href="#DejaVuSans-57"/>
      <use xlink:href="#DejaVuSans-69" transform="translate(96.626953 0)"/>
      <use xlink:href="#DejaVuSans-74" transform="translate(124.410156 0)"/>
      <use xlink:href="#DejaVuSans-68" transform="translate(163.619141 0)"/>
      <use xlink:href="#DejaVuSans-20" transform="translate(226.998047 0)"/>
      <use xlink:href="#DejaVuSans-68" transform="translate(258.785156 0)"/>
      <use xlink:href="#DejaVuSans-61" transform="translate(322.164062 0)"/>
      <use xlink:href="#DejaVuSans-72" transform="translate(383.443359 0)"/>
      <use xlink:href="#DejaVuSans-6e" transform="translate(422.806641 0)"/>
      <use xlink:href="#DejaVuSans-65" transform="translate(486.185547 0)"/>
      <use xlink:href="#DejaVuSans-73" transform="translate(547.708984 0)"/>
      <use xlink:href="#DejaVuSans-73" transform="translate(599.808594 0)"/>
      <use xlink:href="#DejaVuSans-20" transform="translate(651.908203 0)"/>
      <use xlink:href="#DejaVuSans-2014" transform="translate(683.695312 0)"/>
      <use xlink:href="#DejaVuSans-20" transform="translate(783.695312 0)"/>
      <use xlink:href="#DejaVuSans-6d" transform="translate(815.482422 0)"/>
      <use xlink:href="#DejaVuSans-65" transform="translate(912.894531 0)"/>
      <use xlink:href="#DejaVuSans-61" transform="translate(974.417969 0)"/>
      <use xlink:href="#DejaVuSans-6e" transform="translate(1035.697266 0)"/>
      <use xlink:href="#DejaVuSans-20" transform="translate(1099.076172 0)"/>
      <use xlink:href="#DejaVuSans-34" transform="translate(1130.863281 0)"/>
      <use xlink:href="#DejaVuSans-36" transform="translate(1194.486328 0)"/>
      <use xlink:href="#DejaVuSans-2e" transform="translate(1258.109375 0)"/>
      <use xlink:href="#DejaVuSans-30" transform="translate(1289.896484 0)"/>
      <use xlink:href="#DejaVuSans-25" transform="translate(1353.519531 0)"/>
     </g>
    </g>
    <g id="line2d_26">
     <path d="M 281.754766 55.827734 
L 291.254766 55.827734 
L 300.754766 55.827734 
" style="fill: none; stroke: #6f9bd1; stroke-width: 2.2; stroke-linecap: square"/>
    </g>
    <g id="text_16">
     <!-- Raw, no tools — mean 38.2% -->
     <g style="fill: #cfd3da" transform="translate(308.354766 59.152734) scale(0.095 -0.095)">
      <defs>
       <path id="DejaVuSans-52" d="M 2841 2188 
Q 3044 2119 3236 1894 
Q 3428 1669 3622 1275 
L 4263 0 
L 3584 0 
L 2988 1197 
Q 2756 1666 2539 1819 
Q 2322 1972 1947 1972 
L 1259 1972 
L 1259 0 
L 628 0 
L 628 4666 
L 2053 4666 
Q 2853 4666 3247 4331 
Q 3641 3997 3641 3322 
Q 3641 2881 3436 2590 
Q 3231 2300 2841 2188 
z
M 1259 4147 
L 1259 2491 
L 2053 2491 
Q 2509 2491 2742 2702 
Q 2975 2913 2975 3322 
Q 2975 3731 2742 3939 
Q 2509 4147 2053 4147 
L 1259 4147 
z
" transform="scale(0.015625)"/>
       <path id="DejaVuSans-2c" d="M 750 794 
L 1409 794 
L 1409 256 
L 897 -744 
L 494 -744 
L 750 256 
L 750 794 
z
" transform="scale(0.015625)"/>
       <path id="DejaVuSans-6c" d="M 603 4863 
L 1178 4863 
L 1178 0 
L 603 0 
L 603 4863 
z
" transform="scale(0.015625)"/>
      </defs>
      <use xlink:href="#DejaVuSans-52"/>
      <use xlink:href="#DejaVuSans-61" transform="translate(67.232422 0)"/>
      <use xlink:href="#DejaVuSans-77" transform="translate(128.511719 0)"/>
      <use xlink:href="#DejaVuSans-2c" transform="translate(210.298828 0)"/>
      <use xlink:href="#DejaVuSans-20" transform="translate(242.085938 0)"/>
      <use xlink:href="#DejaVuSans-6e" transform="translate(273.873047 0)"/>
      <use xlink:href="#DejaVuSans-6f" transform="translate(337.251953 0)"/>
      <use xlink:href="#DejaVuSans-20" transform="translate(398.433594 0)"/>
      <use xlink:href="#DejaVuSans-74" transform="translate(430.220703 0)"/>
      <use xlink:href="#DejaVuSans-6f" transform="translate(469.429688 0)"/>
      <use xlink:href="#DejaVuSans-6f" transform="translate(530.611328 0)"/>
      <use xlink:href="#DejaVuSans-6c" transform="translate(591.792969 0)"/>
      <use xlink:href="#DejaVuSans-73" transform="translate(619.576172 0)"/>
      <use xlink:href="#DejaVuSans-20" transform="translate(671.675781 0)"/>
      <use xlink:href="#DejaVuSans-2014" transform="translate(703.462891 0)"/>
      <use xlink:href="#DejaVuSans-20" transform="translate(803.462891 0)"/>
      <use xlink:href="#DejaVuSans-6d" transform="translate(835.25 0)"/>
      <use xlink:href="#DejaVuSans-65" transform="translate(932.662109 0)"/>
      <use xlink:href="#DejaVuSans-61" transform="translate(994.185547 0)"/>
      <use xlink:href="#DejaVuSans-6e" transform="translate(1055.464844 0)"/>
      <use xlink:href="#DejaVuSans-20" transform="translate(1118.84375 0)"/>
      <use xlink:href="#DejaVuSans-33" transform="translate(1150.630859 0)"/>
      <use xlink:href="#DejaVuSans-38" transform="translate(1214.253906 0)"/>
      <use xlink:href="#DejaVuSans-2e" transform="translate(1277.876953 0)"/>
      <use xlink:href="#DejaVuSans-32" transform="translate(1309.664062 0)"/>
      <use xlink:href="#DejaVuSans-25" transform="translate(1373.287109 0)"/>
     </g>
    </g>
   </g>
  </g>
 </g>
 <defs>
  <clipPath id="p5b2296515a">
   <rect x="31.88" y="29.44" width="424.51" height="181.32"/>
  </clipPath>
 </defs>
</svg>
