<svg xmlns="http://www.w3.org/2000/svg" viewBox="0 0 600 660" font-family="Helvetica, Arial, sans-serif">
  <rect width="600" height="660" fill="#ffffff"/>
  <line x1="0" y1="20" x2="0" y2="620" stroke="#cfcfcf" stroke-width="1.4"/>
  <line x1="80" y1="20" x2="80" y2="620" stroke="#cfcfcf" stroke-width="1.4"/>
  <line x1="160" y1="20" x2="160" y2="620" stroke="#cfcfcf" stroke-width="1.4"/>
  <line x1="240" y1="20" x2="240" y2="620" stroke="#cfcfcf" stroke-width="1.4"/>
  <line x1="320" y1="20" x2="320" y2="620" stroke="#cfcfcf" stroke-width="1.4"/>
  <line x1="400" y1="20" x2="400" y2="620" stroke="#cfcfcf" stroke-width="1.4"/>
  <line x1="480" y1="20" x2="480" y2="620" stroke="#cfcfcf" stroke-width="1.4"/>
  <line x1="0" y1="60" x2="480" y2="60" stroke="#cfcfcf" stroke-width="1.4"/>
  <line x1="0" y1="140" x2="480" y2="140" stroke="#cfcfcf" stroke-width="1.4"/>
  <line x1="0" y1="220" x2="480" y2="220" stroke="#cfcfcf" stroke-width="1.4"/>
  <line x1="0" y1="300" x2="480" y2="300" stroke="#cfcfcf" stroke-width="1.4"/>
  <line x1="0" y1="380" x2="480" y2="380" stroke="#cfcfcf" stroke-width="1.4"/>
  <line x1="0" y1="460" x2="480" y2="460" stroke="#cfcfcf" stroke-width="1.4"/>
  <line x1="0" y1="540" x2="480" y2="540" stroke="#cfcfcf" stroke-width="1.4"/>
  <line x1="0" y1="620" x2="480" y2="620" stroke="#cfcfcf" stroke-width="1.4"/>
  <circle cx="160" cy="540" r="6.5" fill="#e21d1d"/>
  <text x="170" y="567" font-size="23" font-weight="700" fill="#111">101</text>
  <circle cx="80" cy="380" r="6.5" fill="#e21d1d"/>
  <text x="90" y="407" font-size="23" font-weight="700" fill="#111">102</text>
  <circle cx="160" cy="300" r="6.5" fill="#e21d1d"/>
  <text x="170" y="327" font-size="23" font-weight="700" fill="#111">103</text>
  <circle cx="240" cy="380" r="6.5" fill="#e21d1d"/>
  <text x="250" y="407" font-size="23" font-weight="700" fill="#111">104</text>
  <circle cx="320" cy="460" r="6.5" fill="#e21d1d"/>
  <text x="330" y="487" font-size="23" font-weight="700" fill="#111">105</text>
  <circle cx="400" cy="300" r="6.5" fill="#e21d1d"/>
  <text x="410" y="327" font-size="23" font-weight="700" fill="#111">106</text>
  <circle cx="320" cy="140" r="6.5" fill="#e21d1d"/>
  <text x="330" y="167" font-size="23" font-weight="700" fill="#111">107</text>
  <circle cx="240" cy="300" r="11" fill="#e21d1d"/>
  <text x="258" y="294" font-size="19" font-weight="600" fill="#111">Three-person</text>
  <text x="258" y="316" font-size="19" font-weight="600" fill="#111">meeting point</text>
</svg>
