<svg xmlns="http://www.w3.org/2000/svg" viewBox="0 0 740 540" font-family="Helvetica, Arial, sans-serif">
  <rect width="740" height="540" fill="#ffffff"/>
  <line x1="20" y1="410" x2="720" y2="410" stroke="#111" stroke-width="2.5"/>
  <line x1="20" y1="468" x2="720" y2="468" stroke="#111" stroke-width="2.5"/>
  <text x="95" y="446" text-anchor="middle" font-size="22" font-weight="600" fill="#1a1a1a">Corridor</text>
  <text x="625" y="446" text-anchor="middle" font-size="22" font-weight="600" fill="#1a1a1a">Corridor</text>
  <rect x="150" y="70" width="185" height="290" fill="#ffffff" stroke="#111" stroke-width="2.5"/>
  <text x="242.5" y="200" text-anchor="middle" font-size="20" font-weight="600" fill="#1a1a1a">Table-Tennis</text>
  <text x="242.5" y="226" text-anchor="middle" font-size="20" font-weight="600" fill="#1a1a1a">Room</text>
  <rect x="335" y="98" width="210" height="262" fill="#ffffff" stroke="#111" stroke-width="2.5"/>
  <text x="440.0" y="124" text-anchor="middle" font-size="18" font-weight="600" fill="#1a1a1a">Equipment Room</text>
  <rect x="420" y="150" width="95" height="120" fill="#8d8d8d" stroke="#555" stroke-width="2"/>
  <text x="467.5" y="195" text-anchor="middle" font-size="13" font-weight="600" fill="#ffffff">Equipment</text>
  <text x="467.5" y="213" text-anchor="middle" font-size="13" font-weight="600" fill="#ffffff">storage</text>
  <text x="467.5" y="231" text-anchor="middle" font-size="13" font-weight="600" fill="#ffffff">area</text>
  <rect x="452" y="305" width="58" height="30" fill="#ffffff" stroke="#111" stroke-width="2"/>
  <text x="444" y="325" text-anchor="end" font-size="13" font-weight="500" fill="#1a1a1a">Small wooden table</text>
  <line x1="245" y1="70" x2="300" y2="70" stroke="#e21d1d" stroke-width="6"/>
  <text x="272" y="62" text-anchor="middle" font-size="13" font-weight="500" fill="#1a1a1a">Window</text>
  <line x1="150" y1="120" x2="150" y2="172" stroke="#e21d1d" stroke-width="6"/>
  <text x="142" y="150" text-anchor="end" font-size="13" font-weight="500" fill="#1a1a1a">Side door</text>
  <line x1="178" y1="360" x2="213" y2="360" stroke="#e21d1d" stroke-width="6"/>
  <text x="195" y="388" text-anchor="middle" font-size="13" font-weight="500" fill="#1a1a1a">Front door</text>
  <line x1="258" y1="360" x2="293" y2="360" stroke="#e21d1d" stroke-width="6"/>
  <text x="275" y="388" text-anchor="middle" font-size="13" font-weight="500" fill="#1a1a1a">Window</text>
  <line x1="425" y1="98" x2="478" y2="98" stroke="#e21d1d" stroke-width="6"/>
  <text x="451" y="90" text-anchor="middle" font-size="13" font-weight="500" fill="#1a1a1a">Window</text>
  <line x1="545" y1="140" x2="545" y2="192" stroke="#e21d1d" stroke-width="6"/>
  <text x="553" y="168" text-anchor="start" font-size="13" font-weight="500" fill="#1a1a1a">Side door</text>
  <line x1="368" y1="360" x2="403" y2="360" stroke="#e21d1d" stroke-width="6"/>
  <text x="385" y="388" text-anchor="middle" font-size="13" font-weight="500" fill="#1a1a1a">Front door</text>
  <line x1="462" y1="360" x2="497" y2="360" stroke="#e21d1d" stroke-width="6"/>
  <text x="479" y="388" text-anchor="middle" font-size="13" font-weight="500" fill="#1a1a1a">Window</text>
</svg>
