<svg xmlns="http://www.w3.org/2000/svg" viewBox="200 270 1000 680" font-family="Helvetica, Arial, sans-serif">
  <rect x="200" y="270" width="1000" height="680" fill="#ffffff"/>
  <defs><marker id="ar" viewBox="0 0 10 10" refX="8" refY="5" markerWidth="7" markerHeight="7" orient="auto-start-reverse"><path d="M0 0 L10 5 L0 10 z" fill="#111"/></marker></defs>
  <path d="M 530 432 C 750 492, 945 555, 1048 644 L 1020 668 C 900 590, 700 510, 490 415 Z" fill="#ececec"/>
  <path d="M 440 752 C 400 790, 340 830, 308 856 L 372 876 C 410 848, 470 808, 510 772 Z" fill="#ececec"/>
  <ellipse cx="730" cy="392" rx="265" ry="56" fill="#ffffff" stroke="#111" stroke-width="3"/>
  <path d="M 490 415 C 460 475, 430 540, 407 604" fill="none" stroke="#111" stroke-width="3" stroke-linecap="round"/>
  <path d="M 985 408 C 1010 480, 1042 565, 1067 649" fill="none" stroke="#111" stroke-width="3" stroke-linecap="round"/>
  <path d="M 530 432 C 750 492, 945 555, 1048 644" fill="none" stroke="#111" stroke-width="3" stroke-linecap="round"/>
  <path d="M 490 415 C 700 510, 900 590, 1020 668" fill="none" stroke="#111" stroke-width="3" stroke-linecap="round"/>
  <path d="M 407 604 C 560 720, 880 780, 1010 642" fill="none" stroke="#111" stroke-width="3" stroke-linecap="round"/>
  <path d="M 265 620 C 310 820, 870 840, 1067 649" fill="none" stroke="#111" stroke-width="3" stroke-linecap="round"/>
  <path d="M 265 620 Q 330 588 407 604" fill="none" stroke="#111" stroke-width="3" stroke-linecap="round"/>
  <path d="M 265 620 L 246 776" fill="none" stroke="#111" stroke-width="3" stroke-linecap="round"/>
  <path d="M 1067 649 L 1112 754" fill="none" stroke="#111" stroke-width="3" stroke-linecap="round"/>
  <path d="M 440 752 C 400 790, 340 830, 308 856" fill="none" stroke="#111" stroke-width="3" stroke-linecap="round"/>
  <path d="M 510 772 C 470 808, 410 848, 372 876" fill="none" stroke="#111" stroke-width="3" stroke-linecap="round"/>
  <path d="M 495 336 L 508 323 L 623 323 L 610 336 Z" fill="#ffffff" stroke="#111" stroke-width="2" stroke-linejoin="round"/>
  <path d="M 610 336 L 623 323 L 623 375 L 610 388 Z" fill="#ffffff" stroke="#111" stroke-width="2" stroke-linejoin="round"/>
  <rect x="495" y="336" width="115" height="52" fill="#ffffff" stroke="#111" stroke-width="2"/>
  <text x="552" y="358" text-anchor="middle" font-size="13.5" font-weight="600" fill="#111">Tatami room</text>
  <text x="552" y="376" text-anchor="middle" font-size="11.5" font-weight="500" fill="#444">(Washitsu)</text>
  <ellipse cx="645" cy="345" rx="11" ry="4.5" fill="#ffffff" stroke="#111" stroke-width="1.8"/>
  <path d="M 634 345 L 636 356 Q 645 360 654 356 L 656 345" fill="#ffffff" stroke="#111" stroke-width="1.8"/>
  <text x="648" y="316" text-anchor="middle" font-size="12.5" font-weight="500" fill="#111">Water vat</text>
  <line x1="646" y1="322" x2="645" y2="338" stroke="#111" stroke-width="1.3"/>
  <path d="M 828 313 L 841 300 L 897 300 L 884 313 Z" fill="#ffffff" stroke="#111" stroke-width="2" stroke-linejoin="round"/>
  <path d="M 884 313 L 897 300 L 897 344 L 884 357 Z" fill="#ffffff" stroke="#111" stroke-width="2" stroke-linejoin="round"/>
  <rect x="828" y="313" width="56" height="44" fill="#ffffff" stroke="#111" stroke-width="2"/>
  <text x="856" y="340" text-anchor="middle" font-size="12.5" font-weight="600" fill="#111">Zatsu</text>
  <path d="M 664 370 L 677 357 L 743 357 L 730 370 Z" fill="#ffffff" stroke="#111" stroke-width="2" stroke-linejoin="round"/>
  <path d="M 730 370 L 743 357 L 743 411 L 730 424 Z" fill="#ffffff" stroke="#111" stroke-width="2" stroke-linejoin="round"/>
  <rect x="664" y="370" width="66" height="54" fill="#ffffff" stroke="#111" stroke-width="2"/>
  <text x="697.0" y="401.0" text-anchor="middle" font-size="11.5" font-weight="600" fill="#111">Kojiro</text>
  <path d="M 730 370 L 743 357 L 809 357 L 796 370 Z" fill="#ffffff" stroke="#111" stroke-width="2" stroke-linejoin="round"/>
  <path d="M 796 370 L 809 357 L 809 411 L 796 424 Z" fill="#ffffff" stroke="#111" stroke-width="2" stroke-linejoin="round"/>
  <rect x="730" y="370" width="66" height="54" fill="#ffffff" stroke="#111" stroke-width="2"/>
  <text x="763.0" y="401.0" text-anchor="middle" font-size="11.5" font-weight="600" fill="#111">Zenpachi</text>
  <path d="M 796 370 L 809 357 L 875 357 L 862 370 Z" fill="#ffffff" stroke="#111" stroke-width="2" stroke-linejoin="round"/>
  <path d="M 862 370 L 875 357 L 875 411 L 862 424 Z" fill="#ffffff" stroke="#111" stroke-width="2" stroke-linejoin="round"/>
  <rect x="796" y="370" width="66" height="54" fill="#ffffff" stroke="#111" stroke-width="2"/>
  <text x="829.0" y="401.0" text-anchor="middle" font-size="11.5" font-weight="600" fill="#111">Ofuji</text>
  <path d="M 862 370 L 875 357 L 941 357 L 928 370 Z" fill="#ffffff" stroke="#111" stroke-width="2" stroke-linejoin="round"/>
  <path d="M 928 370 L 941 357 L 941 411 L 928 424 Z" fill="#ffffff" stroke="#111" stroke-width="2" stroke-linejoin="round"/>
  <rect x="862" y="370" width="66" height="54" fill="#ffffff" stroke="#111" stroke-width="2"/>
  <text x="895.0" y="401.0" text-anchor="middle" font-size="11.5" font-weight="600" fill="#111">Bungoro</text>
  <path d="M 932 358 L 945 345 L 1001 345 L 988 358 Z" fill="#ffffff" stroke="#111" stroke-width="2" stroke-linejoin="round"/>
  <path d="M 988 358 L 1001 345 L 1001 399 L 988 412 Z" fill="#ffffff" stroke="#111" stroke-width="2" stroke-linejoin="round"/>
  <rect x="932" y="358" width="56" height="54" fill="#ffffff" stroke="#111" stroke-width="2"/>
  <text x="960" y="388" text-anchor="middle" font-size="13" font-weight="600" fill="#111">Ko</text>
  <path d="M 330 650 L 343 637 L 438 637 L 425 650 Z" fill="#ffffff" stroke="#111" stroke-width="2" stroke-linejoin="round"/>
  <path d="M 425 650 L 438 637 L 438 689 L 425 702 Z" fill="#ffffff" stroke="#111" stroke-width="2" stroke-linejoin="round"/>
  <rect x="330" y="650" width="95" height="52" fill="#ffffff" stroke="#111" stroke-width="2"/>
  <text x="377" y="671" text-anchor="middle" font-size="13.5" font-weight="600" fill="#111">Shop</text>
  <text x="377" y="688" text-anchor="middle" font-size="11.5" font-weight="500" fill="#444">(Tenpo)</text>
  <ellipse cx="380" cy="613" rx="11" ry="4.5" fill="#ffffff" stroke="#111" stroke-width="1.8"/>
  <path d="M 369 613 L 371 624 Q 380 628 389 624 L 391 613" fill="#ffffff" stroke="#111" stroke-width="1.8"/>
  <text x="360" y="580" text-anchor="middle" font-size="12.5" font-weight="500" fill="#111">Water vat</text>
  <line x1="366" y1="586" x2="378" y2="605" stroke="#111" stroke-width="1.3"/>
  <path d="M 466 728 q -8 -56 -5 -120" fill="none" stroke="#111" stroke-width="2.6" stroke-linecap="round"/>
  <line x1="461" y1="668" x2="452" y2="659" stroke="#111" stroke-width="1.7"/>
  <line x1="460" y1="626" x2="469" y2="617" stroke="#111" stroke-width="1.7"/>
  <path d="M 488 718 q 6 -56 3 -120" fill="none" stroke="#111" stroke-width="2.6" stroke-linecap="round"/>
  <line x1="492" y1="649" x2="501" y2="640" stroke="#111" stroke-width="1.7"/>
  <line x1="491" y1="609" x2="482" y2="600" stroke="#111" stroke-width="1.7"/>
  <path d="M 510 708 q -5 -56 -2 -120" fill="none" stroke="#111" stroke-width="2.6" stroke-linecap="round"/>
  <line x1="507" y1="630" x2="498" y2="621" stroke="#111" stroke-width="1.7"/>
  <line x1="507" y1="613" x2="516" y2="604" stroke="#111" stroke-width="1.7"/>
  <path d="M 532 728 q 9 -56 6 -120" fill="none" stroke="#111" stroke-width="2.6" stroke-linecap="round"/>
  <line x1="538" y1="668" x2="547" y2="659" stroke="#111" stroke-width="1.7"/>
  <line x1="539" y1="626" x2="530" y2="617" stroke="#111" stroke-width="1.7"/>
  <path d="M 554 718 q -10 -56 -7 -120" fill="none" stroke="#111" stroke-width="2.6" stroke-linecap="round"/>
  <line x1="547" y1="649" x2="538" y2="640" stroke="#111" stroke-width="1.7"/>
  <line x1="547" y1="609" x2="556" y2="600" stroke="#111" stroke-width="1.7"/>
  <path d="M 576 708 q 7 -56 4 -120" fill="none" stroke="#111" stroke-width="2.6" stroke-linecap="round"/>
  <line x1="581" y1="630" x2="590" y2="621" stroke="#111" stroke-width="1.7"/>
  <line x1="581" y1="613" x2="572" y2="604" stroke="#111" stroke-width="1.7"/>
  <path d="M 598 728 q -4 -56 -1 -120" fill="none" stroke="#111" stroke-width="2.6" stroke-linecap="round"/>
  <line x1="596" y1="668" x2="587" y2="659" stroke="#111" stroke-width="1.7"/>
  <line x1="596" y1="626" x2="605" y2="617" stroke="#111" stroke-width="1.7"/>
  <path d="M 687 672 L 700 659 L 766 659 L 753 672 Z" fill="#ffffff" stroke="#111" stroke-width="2" stroke-linejoin="round"/>
  <path d="M 753 672 L 766 659 L 766 713 L 753 726 Z" fill="#ffffff" stroke="#111" stroke-width="2" stroke-linejoin="round"/>
  <rect x="687" y="672" width="66" height="54" fill="#ffffff" stroke="#111" stroke-width="2"/>
  <text x="720.0" y="703.0" text-anchor="middle" font-size="11.5" font-weight="600" fill="#111">Oyu</text>
  <path d="M 753 672 L 766 659 L 832 659 L 819 672 Z" fill="#ffffff" stroke="#111" stroke-width="2" stroke-linejoin="round"/>
  <path d="M 819 672 L 832 659 L 832 713 L 819 726 Z" fill="#ffffff" stroke="#111" stroke-width="2" stroke-linejoin="round"/>
  <rect x="753" y="672" width="66" height="54" fill="#ffffff" stroke="#111" stroke-width="2"/>
  <text x="786.0" y="703.0" text-anchor="middle" font-size="11.5" font-weight="600" fill="#111">Hoshin</text>
  <path d="M 819 672 L 832 659 L 898 659 L 885 672 Z" fill="#ffffff" stroke="#111" stroke-width="2" stroke-linejoin="round"/>
  <path d="M 885 672 L 898 659 L 898 713 L 885 726 Z" fill="#ffffff" stroke="#111" stroke-width="2" stroke-linejoin="round"/>
  <rect x="819" y="672" width="66" height="54" fill="#ffffff" stroke="#111" stroke-width="2"/>
  <text x="852.0" y="703.0" text-anchor="middle" font-size="11.5" font-weight="600" fill="#111">Kanekichi</text>
  <text x="560" y="880" text-anchor="start" font-size="19" font-weight="600" fill="#111">toward Yotsuya</text>
  <line x1="712" y1="874" x2="762" y2="874" stroke="#111" stroke-width="2.5" marker-end="url(#ar)"/>
</svg>
